<svg xmlns="http://www.w3.org/2000/svg" viewBox="0 0 413.43 367.77"><defs><style>.cls-1{fill:#f88e00;}.cls-2{fill:#c96626;}.cls-3{fill:#426572;}.cls-4{fill:#fff;}.cls-5{fill:#f3aa9f;}.cls-6{fill:#e1978f;}.cls-7{fill:#e1d2d5;}.cls-8{fill:none;stroke:#592d14;stroke-miterlimit:10;stroke-width:12px;}</style></defs><title>Asset 82</title><g id="Layer_2" data-name="Layer 2"><g id="Layer_1-2" data-name="Layer 1"><rect class="cls-1" x="173.23" y="125.27" width="49.3" height="254.32" transform="translate(236.46 -65.99) rotate(45)"/><polygon class="cls-2" points="205.02 214.21 274.73 214.21 306.4 182.54 271.54 147.69 205.02 214.21"/><path class="cls-3" d="M124.91,367.77,81.56,324.42,269.88,136.11l43.34,43.34ZM98.53,324.42l26.37,26.38L296.25,179.45l-26.37-26.37Z"/><rect class="cls-1" x="172.74" y="125.27" width="49.3" height="254.32" transform="translate(515.46 291.35) rotate(135)"/><polygon class="cls-2" points="189.69 214.21 119.98 214.21 88.32 182.54 123.17 147.69 189.69 214.21"/><path class="cls-3" d="M270.37,367.77,82.05,179.45l43.34-43.34L313.71,324.42ZM99,179.45,270.37,350.8l26.37-26.37L125.4,153.08Z"/><rect class="cls-4" x="6.35" y="58.43" width="401.43" height="131.46" rx="12" ry="12"/><circle class="cls-5" cx="75.91" cy="31.04" r="25.04"/><circle class="cls-5" cx="338.84" cy="31.04" r="25.04"/><path class="cls-6" d="M100.17,31a25.07,25.07,0,0,1-32.08,24A25.05,25.05,0,0,0,68.09,7a25.07,25.07,0,0,1,32.08,24Z"/><path class="cls-6" d="M363.1,31a25.07,25.07,0,0,1-32.08,24A25.05,25.05,0,0,0,331,7,25.07,25.07,0,0,1,363.1,31Z"/><path class="cls-7" d="M407.53,67.82v8.61h-374a9.42,9.42,0,0,0-9.39,9.39V189.89H15.49A9.42,9.42,0,0,1,6.1,180.5V67.82a9.42,9.42,0,0,1,9.39-9.39H398.14A9.42,9.42,0,0,1,407.53,67.82Z"/><polygon class="cls-5" points="122.99 63.12 86.99 194.59 154.81 194.59 190.81 63.12 122.99 63.12"/><polygon class="cls-5" points="258.36 63.12 222.37 194.59 290.19 194.59 326.18 63.12 258.36 63.12"/><path class="cls-3" d="M395.43,195.89H18a18,18,0,0,1-18-18V70.43a18,18,0,0,1,18-18H395.43a18,18,0,0,1,18,18V177.89A18,18,0,0,1,395.43,195.89ZM18,64.43a6,6,0,0,0-6,6V177.89a6,6,0,0,0,6,6H395.43a6,6,0,0,0,6-6V70.43a6,6,0,0,0-6-6Z"/><path class="cls-3" d="M75.3,62.08a31,31,0,1,1,31-31A31.08,31.08,0,0,1,75.3,62.08ZM75.3,12a19,19,0,1,0,19,19A19.06,19.06,0,0,0,75.3,12Z"/><path class="cls-3" d="M338.23,62.08a31,31,0,1,1,31-31A31.08,31.08,0,0,1,338.23,62.08Zm0-50.08a19,19,0,1,0,19,19A19.06,19.06,0,0,0,338.23,12Z"/><polygon class="cls-6" points="118.57 76.43 122.21 63.12 188.74 63.12 185.09 76.43 118.57 76.43"/><polygon class="cls-6" points="255.51 76.43 259.15 63.12 325.94 63.12 322.3 76.43 255.51 76.43"/><rect class="cls-3" x="36.84" y="118.16" width="136.3" height="12" transform="translate(-42.49 192.62) rotate(-74.68)"/><rect class="cls-3" x="104.66" y="118.16" width="136.3" height="12" transform="translate(7.41 258.03) rotate(-74.68)"/><rect class="cls-3" x="172.48" y="118.16" width="136.3" height="12" transform="translate(57.31 323.44) rotate(-74.68)"/><rect class="cls-3" x="240.29" y="118.16" width="136.3" height="12" transform="translate(107.22 388.85) rotate(-74.68)"/><path class="cls-8" d="M130.66,189.89"/><ellipse class="cls-4" cx="265.99" cy="314" rx="3.83" ry="20" transform="translate(-144.42 283.84) rotate(-45.53)"/><ellipse class="cls-4" cx="238.16" cy="286.47" rx="3.83" ry="10" transform="translate(-133.11 255.74) rotate(-45.53)"/></g></g></svg>