<svg xmlns="http://www.w3.org/2000/svg" viewBox="0 0 391.84 404.31"><defs><style>.cls-1{fill:#fff;}.cls-2{fill:#e1d2d5;}.cls-3{fill:#f3aa9f;}.cls-4{fill:#e1978f;}.cls-5{fill:#426572;}</style></defs><title>Asset 81</title><g id="Layer_2" data-name="Layer 2"><g id="Layer_1-2" data-name="Layer 1"><rect class="cls-1" x="9.35" y="348.94" width="379.84" height="49.36"/><path class="cls-2" d="M385.34,368.67c.56,2.89-61.77,7.17-67.6,7.12-40.32-.4-79.51-7.39-119.49-10.24-41.4-3-82.57-5.3-124.07-2.4C51.85,364.7,24.61,369,13.07,390.91a24.68,24.68,0,0,1,17.61-42H361.16A24.69,24.69,0,0,1,385.34,368.67Z"/><path class="cls-2" d="M212.05,9.62A45.62,45.62,0,0,0,186.8,38.31L94.54,348.94H57.72L150,38.31A45.55,45.55,0,0,1,212.05,9.62Z"/><polygon class="cls-3" points="332.9 349.21 61.07 349.21 77.55 293.72 316.42 293.72 332.9 349.21"/><polygon class="cls-3" points="289.75 207.55 102.56 207.55 128.4 120.53 263.9 120.53 289.75 207.55"/><polygon class="cls-4" points="129.24 120.53 163.22 120.53 137.62 206.71 137.37 207.55 103.4 207.55 129.24 120.53"/><polygon class="cls-4" points="61.15 353.13 77.55 297.91 110.93 297.91 94.54 353.13 61.15 353.13"/><path class="cls-5" d="M340.11,355.21H52.19L146.75,36.86a51.54,51.54,0,0,1,98.81,0Zm-271.83-12H324l-90-302.93a39.54,39.54,0,0,0-75.8,0h0Z"/><path class="cls-5" d="M364.4,404.31H27.45A27.48,27.48,0,0,1,0,376.86v-6.47a27.48,27.48,0,0,1,27.45-27.45H364.4a27.48,27.48,0,0,1,27.45,27.45v6.47A27.48,27.48,0,0,1,364.4,404.31ZM27.45,354.94A15.47,15.47,0,0,0,12,370.39v6.47a15.47,15.47,0,0,0,15.45,15.45H364.4a15.47,15.47,0,0,0,15.45-15.45v-6.47a15.47,15.47,0,0,0-15.45-15.45Z"/><rect class="cls-5" x="130.66" y="113.7" width="133.26" height="12"/><rect class="cls-5" x="103.89" y="200.71" width="184.3" height="12"/><rect class="cls-5" x="77.95" y="287.72" width="237.61" height="12"/><ellipse class="cls-1" cx="258.94" cy="175.08" rx="3.83" ry="15.73" transform="translate(-37.67 76.47) rotate(-15.67)"/><ellipse class="cls-1" cx="250.78" cy="145.38" rx="3.83" ry="7.87" transform="translate(-29.95 73.16) rotate(-15.67)"/></g></g></svg>