<?xml version="1.0" encoding="UTF-8"?>
<svg id="Layer_2" data-name="Layer 2" xmlns="http://www.w3.org/2000/svg" viewBox="0 0 634 835.5">
  <defs>
    <style>
      .cls-1 {
        stroke: #96bc2e;
        stroke-linejoin: round;
      }

      .cls-1, .cls-2 {
        fill: none;
        stroke-linecap: round;
      }

      .cls-3 {
        fill: #faca92;
      }

      .cls-4, .cls-5 {
        fill: #f9b78a;
      }

      .cls-6 {
        fill: #68bbea;
      }

      .cls-7 {
        fill: #e59a67;
      }

      .cls-8 {
        fill: #fff;
      }

      .cls-9 {
        fill: #ffdd50;
      }

      .cls-10 {
        fill: #ffe7d7;
      }

      .cls-11 {
        fill: #ffcba6;
      }

      .cls-12 {
        fill: #fceeb7;
      }

      .cls-13 {
        fill: #7f4b4b;
      }

      .cls-14 {
        fill: #ba4936;
      }

      .cls-15 {
        fill: #c0cf5a;
      }

      .cls-16 {
        fill: #bdd4e5;
      }

      .cls-17 {
        fill: #c6523e;
      }

      .cls-18 {
        fill: #dfeaf4;
      }

      .cls-19 {
        fill: #d76852;
      }

      .cls-20 {
        fill: #4296ba;
      }

      .cls-21 {
        fill: #35a6d8;
      }

      .cls-22 {
        fill: #3692ba;
      }

      .cls-23 {
        fill: #9b3c2c;
      }

      .cls-24 {
        fill: #26ca40;
      }

      .cls-25 {
        fill: #603131;
      }

      .cls-26 {
        fill: #82c9e8;
      }

      .cls-27 {
        fill: #4fb0db;
      }

      .cls-5 {
        isolation: isolate;
      }

      .cls-5, .cls-28 {
        opacity: .4;
      }

      .cls-2 {
        stroke: #4296ba;
        stroke-miterlimit: 10;
        stroke-width: 2px;
      }

      .cls-29 {
        opacity: .25;
      }

      .cls-30 {
        opacity: .7;
      }
    </style>
  </defs>
  <g id="Layer_1-2" data-name="Layer 1">
    <g id="Layer_2-2" data-name="Layer 2">
      <g id="Layer_1-2" data-name="Layer 1-2">
        <g class="cls-28">
          <path class="cls-18" d="M215.17,697c5.75-19.12-8-39.37-25.23-49.44s-37.56-13.08-56.52-19.34c-74.42-24.56-125.42-106.04-114.99-183.7,2.28-17,7.61-34.45,19.86-46.48,9.49-9.33,22.2-14.52,33.24-22,20.47-13.83,34.66-35.04,48.33-55.7s28-41.81,48.63-55.43,49.57-17.89,69.78-3.59c12.53,8.86,20.12,23.46,32.73,32.19,23.05,15.94,54.06,7.79,82.08,7.93,20,.1,39.81,4.81,58.64,11.61,60.61,21.89,113.28,67.15,140.11,125.74s26,130.08-5.8,186.1-95.29,93.78-159.67,91c-22.45-1-45.11-6.81-63.51-19.7"/>
        </g>
        <path class="cls-19" d="M398,724c6,68-38.84,110.5-96,110.5s-103.5-52.34-103.5-109.5c0-6.28,.56-46.36,1.63-52.21,8.69-47.33,51-45.29,101.87-45.29s66.35-46.43,73,3.5c.58,4.37,22.6,88.42,23,93Z"/>
        <path class="cls-17" d="M302,834.5c-57.16,0-103.5-52.34-103.5-109.5,0-1.44,0-4.65,.09-8.82,2.18,55.51,47.65,105.32,103.41,105.32,51.78,0,93.44-34.87,96.37-92,3.16,64.8-40.78,105-96.37,105Z"/>
        <path class="cls-23" d="M297,772.25v61.75c0,.83,.67,1.5,1.5,1.5s1.5-.67,1.5-1.5v-61.75c0-.83-.67-1.5-1.5-1.5s-1.5,.67-1.5,1.5Z"/>
        <path class="cls-23" d="M281.07,759.5v27.22c0,3.76-.24,7.46,1.53,10.93,3.09,6.09,9.44,8.78,16,8.78,.79,0,1.43-.64,1.43-1.43,0-.79-.64-1.42-1.43-1.43-7.55,0-14.32-4.35-14.68-12.4-.14-3.14,0-6.31,0-9.45v-22.22c0-.79-.64-1.43-1.43-1.43-.79,0-1.42,.64-1.43,1.43h0Z"/>
        <path class="cls-25" d="M286.85,666.67c-32.15,9.6-65,18.86-98.75,19.89-30.65,.94-60.8-5.95-87.48-21.22-14.05-8.05-26.8-18.16-37.85-30-2-2.12-5.16,1.07-3.18,3.19,19.99,21.35,45.23,37.07,73.21,45.59,31.47,9.55,64.6,8.26,96.58,2.1,19.86-3.83,39.31-9.4,58.67-15.18,2.76-.83,1.59-5.17-1.2-4.34v-.03Z"/>
        <path class="cls-25" d="M58.92,684.55c10.65-9.93,26-15.82,40.51-14.95,1.92,.12,1.92-2.88,0-3-15.29-.91-31.43,5.4-42.63,15.83-1.42,1.32,.71,3.44,2.12,2.12Z"/>
        <path class="cls-25" d="M91.73,697.73c10.65-9.94,26-15.82,40.51-15,1.92,.11,1.92-2.89,0-3-15.29-.92-31.42,5.37-42.63,15.82-1.42,1.32,.71,3.44,2.12,2.13v.05Z"/>
        <path class="cls-25" d="M154,706.51c10.4-10.19,25.6-16.47,40.12-16,1.93,.07,1.92-2.93,0-3-15.31-.54-31.29,6.11-42.24,16.84-1.39,1.35,.74,3.47,2.12,2.12v.04Z"/>
        <path class="cls-25" d="M155.39,641.5c-8.27,13.22-11.39,29.03-8.75,44.4,.35,1.9,3.24,1.09,2.9-.8-2.43-14.6,.58-29.58,8.46-42.1,1.05-1.63-1.55-3.14-2.59-1.51h-.02Z"/>
        <ellipse class="cls-15" cx="48.19" cy="627.35" rx="21.5" ry="30.5" transform="translate(-518.3 353.53) rotate(-59.81)"/>
        <path class="cls-1" d="M31.81,615.73h0c10.17,3.82,19.21,10.13,26.31,18.35l2.79,3.23"/>
        <path class="cls-1" d="M34,630.61s-2-9.05,5-11.51"/>
        <path class="cls-1" d="M53.5,613.59s-9.18,1.26-9.12,8.63"/>
        <path class="cls-1" d="M43.49,636.89s-1.94-9,5-11.51"/>
        <ellipse class="cls-15" cx="161" cy="633.48" rx="30.5" ry="21.5" transform="translate(-454.47 413.47) rotate(-56.07)"/>
        <path class="cls-1" d="M171.93,621.24h0c-8.02,7.32-14.07,16.54-17.59,26.82l-1.38,4"/>
        <path class="cls-1" d="M175.46,635.85s-1.57-9.13-8.93-8.82"/>
        <path class="cls-1" d="M151,627.32s9-2.24,11.68,4.61"/>
        <path class="cls-1" d="M169,645.22s-1.57-9.13-8.93-8.82"/>
        <ellipse class="cls-15" cx="139.84" cy="722.55" rx="30.5" ry="21.5" transform="translate(-417.3 241.7) rotate(-38.25)"/>
        <ellipse class="cls-15" cx="78.92" cy="708.77" rx="30.5" ry="21.5" transform="translate(-409.3 188.94) rotate(-36.85)"/>
        <path class="cls-1" d="M69.58,721.85h0c4.46-9.9,11.34-18.52,20-25.07l3.42-2.58"/>
        <path class="cls-1" d="M84.56,720.65s-9.16,1.35-11.16-5.74"/>
        <path class="cls-1" d="M68.83,700.07s.67,9.23,8,9.65"/>
        <path class="cls-1" d="M91.44,711.56s-9.16,1.35-11.16-5.74"/>
        <path class="cls-1" d="M129.72,736.55h0c4.46-9.9,11.34-18.53,20-25.08l3.41-2.57"/>
        <path class="cls-1" d="M144.71,735.35s-9.16,1.35-11.17-5.74"/>
        <path class="cls-1" d="M129,714.76s.67,9.24,8,9.66"/>
        <path class="cls-1" d="M151.58,726.25s-9.16,1.35-11.16-5.73"/>
        <polygon class="cls-12" points="106.46 156.22 105.09 163.81 60.73 155.51 62.09 147.93 106.46 156.22"/>
        <polygon class="cls-12" points="194.6 78.48 186.94 79.34 182.18 34.46 189.83 33.59 194.6 78.48"/>
        <circle class="cls-12" cx="197.63" cy="179.37" r="126.37"/>
        <circle class="cls-9" cx="197.63" cy="179.37" r="95.55"/>
        <rect class="cls-12" x="109.02" y="53.77" width="7.71" height="52.4" transform="translate(-25.33 73.97) rotate(-32.83)"/>
        <rect class="cls-12" x="155.25" y="29.1" width="7.71" height="52.4" transform="translate(-9.23 61.37) rotate(-21.23)"/>
        <rect class="cls-12" x="77.42" y="101.53" width="7.71" height="52.4" transform="translate(-66.7 159.73) rotate(-69.73)"/>
        <polygon class="cls-12" points="123.57 119.34 119.21 125.69 82.15 99.93 86.51 93.58 123.57 119.34"/>
        <polygon class="cls-12" points="151.98 95.38 145 98.64 126.17 57.62 133.15 54.36 151.98 95.38"/>
        <circle class="cls-19" cx="527.5" cy="628.5" r="75.5"/>
        <path class="cls-14" d="M594.51,621.45c2.59,27.76-11.83,54.8-36.93,67.36-33.31,16.6-73.77,3.06-90.38-30.25-16.6-33.31-3.06-73.77,30.25-90.38,11-5.48,23.29-7.85,35.54-6.85,32.11,2.56,57.94,28.33,61.55,60.12,.16,1.42,2.41,1.44,2.25,0-3.25-28.55-23.51-52.94-51.51-60.29-37.2-9.74-75.26,12.52-85,49.72-9.74,37.2,12.52,75.26,49.72,85,12.43,3.26,25.52,3.01,37.82-.72,31.65-9.61,52-40.92,49-73.66-.2-1.5-2.45-1.5-2.32-.05Z"/>
        <circle class="cls-8" cx="527.5" cy="628.5" r="58.5"/>
        <g class="cls-29">
          <path class="cls-19" d="M585.61,621.62c.21,1.99,.31,4,.31,6-6.54-31.65-37.49-52-69.14-45.46-27.13,5.6-46.61,29.47-46.67,57.17-.4-1.96-.7-3.93-.9-5.92-3.59-32.11,19.53-61.05,51.64-64.63,32.11-3.59,61.05,19.53,64.63,51.64,.05,.41,.09,.81,.12,1.22v-.02Z"/>
        </g>
        <g class="cls-29">
          <circle class="cls-19" cx="529.59" cy="632.45" r="8.5"/>
        </g>
        <path class="cls-25" d="M492.92,607.3l36,27.44c.72,.41,1.65,.16,2.06-.56,.13-.23,.2-.48,.2-.74l-2.73-26.36c-.2-1.9-3.2-1.92-3,0l2.73,26.36,2.25-1.29-36-27.44c-1.54-1.17-3,1.43-1.52,2.59h0Z"/>
        <rect class="cls-8" x="88.5" y="414.54" width="147" height="206" rx="13.61" ry="13.61" transform="translate(-378.7 559.16) rotate(-77.02)"/>
        <rect class="cls-18" x="122" y="450.99" width="5" height="77" transform="translate(-380.15 510.12) rotate(-78.07)"/>
        <rect class="cls-18" x="120" y="461.99" width="5" height="77" transform="translate(-392.5 516.88) rotate(-78.07)"/>
        <rect class="cls-18" x="118" y="472.99" width="5" height="77" transform="translate(-404.85 523.65) rotate(-78.07)"/>
        <circle class="cls-19" cx="88.5" cy="439.5" r="3.5"/>
        <circle class="cls-9" cx="98.5" cy="441.5" r="3.5"/>
        <circle class="cls-24" cx="109.5" cy="444.5" r="3.5"/>
        <path class="cls-18" d="M64.8,445.72l61.81,13.85,98.54,22.08,22.65,5.07c.94,.21,1.34-1.23,.4-1.44l-61.81-13.85-98.54-22.08-22.65-5.07c-.94-.21-1.34,1.23-.4,1.44Z"/>
        <rect class="cls-8" x="354.5" y="383.48" width="206" height="147" rx="19.39" ry="19.39" transform="translate(-139.19 207.78) rotate(-22.3)"/>
        <rect class="cls-18" x="451.45" y="420.84" width="77" height="5" transform="translate(-120.12 206.36) rotate(-21.25)"/>
        <rect class="cls-18" x="455.21" y="431.38" width="77" height="5" transform="translate(-123.69 208.44) rotate(-21.25)"/>
        <rect class="cls-18" x="458.97" y="441.9" width="77" height="5" transform="translate(-127.24 210.52) rotate(-21.25)"/>
        <path class="cls-18" d="M541.27,369l-58.75,23.7-93.66,37.75-21.53,8.67c-.88,.36-.49,1.81,.4,1.45l58.75-23.68,93.67-37.75,21.52-8.67c.89-.36,.5-1.81-.4-1.45v-.02Z"/>
        <path class="cls-6" d="M281.93,393.36c-43.06,21.26-71.13,65.58-81.93,113.64s-11.08,97.17-5.54,146.22c4,35.34,10.9,74.37,38.35,95.89,18.7,14.66,42,21.1,65.33,23.92,16.92,1.86,34.03,.97,50.66-2.65,0,0,26.31-2.6,41.93-32.75,7.15-12.22,9.65-26.69,11.63-40.84,8.81-63.17,9.98-127.18,3.47-190.63-3-29.2-8.6-60.3-28.62-81.17-17.25-18-42.14-25.14-65.83-31.59"/>
        <path class="cls-27" d="M402.36,696.79c-2,14.15-4.48,28.62-11.63,40.84-15.62,30.15-41.93,32.75-41.93,32.75-16.63,3.61-33.74,4.49-50.66,2.62-23.3-2.82-46.63-9.26-65.33-23.92-6.79-5.38-12.59-11.91-17.13-19.29,17.28,11,37.63,16.25,58,18.71,16.92,1.86,34.03,.97,50.66-2.65,0,0,26.31-2.6,41.93-32.75,7.15-12.22,9.65-26.69,11.63-40.84,8.81-63.17,9.98-127.18,3.47-190.63-2.45-23.83-6.63-48.92-19-68.68,5.42,3.38,10.4,7.41,14.84,12,20,20.87,25.62,52,28.62,81.17,6.51,63.47,5.35,127.48-3.47,190.67Z"/>
        <circle class="cls-11" cx="434.27" cy="764.69" r="36.04"/>
        <path class="cls-6" d="M371.3,484.55c26.05,28.29,40.36,66,45.43,104.09s1.46,76.9-4.7,114.86c-1.86,11.5-3.62,24.47,3.42,33.74,6,7.94,16.6,10.55,26.35,12.58,8.15,1.69,17.24,3.18,24.3-1.24,8.31-5.19,10.27-16.25,11.23-26,5.07-52.05,3.78-105.21-9.66-155.75s-39.62-98.46-78.91-133c-10.6-9.27-29.76-22.83-49.76-24.83"/>
        <path class="cls-27" d="M383.56,485c1.74-.02,3.41,.71,4.58,2,24.89,28,38.64,64.84,43.59,102.05,5.07,38.17,1.46,76.95-4.73,114.95-1.86,11.5-3.62,24.47,3.42,33.74,6,7.94,16.6,10.55,26.35,12.58,1.26,.26,2.54,.52,3.84,.74-6.2,1.84-13.32,.61-19.84-.74-9.75-2-20.34-4.64-26.35-12.58-7-9.27-5.28-22.24-3.42-33.74,6.16-38,9.77-76.73,4.7-114.86-4.5-33.83-16.28-67.32-37.08-94.2-2.06-2.71-1.54-6.57,1.17-8.63,1.07-.82,2.39-1.26,3.74-1.26l.03-.05Z"/>
        <path class="cls-11" d="M275.79,363l-3.79,34.63c-.52,4.75-1,9.86,1.39,14,2.85,5,8.93,7.1,14.6,8.1,6.29,1.12,12.7,1.38,19.06,.79,2.14-.1,4.24-.6,6.2-1.48,3.52-1.79,5.63-5.64,6.29-9.53s.08-7.88-.57-11.78c-2.6-15.62-6.3-31.04-11.06-46.15"/>
        <g class="cls-28">
          <path class="cls-4" d="M319.54,409.93c-.66,3.89-2.77,7.74-6.29,9.53-1.96,.88-4.06,1.38-6.2,1.48-6.03,.56-12.11,.35-18.09-.63,1.37-1.37,2.66-2.81,3.87-4.33,14.18-17.67,19.58-41.85,15.07-64h0c4.78,15.11,8.48,30.54,11.1,46.17,.62,3.9,1.2,7.85,.54,11.78Z"/>
        </g>
        <ellipse class="cls-25" cx="212.5" cy="143" rx="27.5" ry="27"/>
        <ellipse class="cls-25" cx="210.5" cy="118" rx="27.5" ry="27"/>
        <path class="cls-25" d="M363.31,35.28c.57-6.62-.1-13.29-2-19.66,9.44,8.65,19,17.48,25.41,28.56s9.21,25,4.31,36.8"/>
        <path class="cls-25" d="M342.69,31.05c-1.51-6.45-4.23-12.55-8-18,11.67,5.25,23.54,10.63,33.08,19.15s16.55,20.8,15.6,33.54"/>
        <path class="cls-25" d="M396.41,61.19c3.72-5.5,6.37-11.66,7.82-18.14,4,12.14,8.14,24.51,8.36,37.3s-4.07,26.31-14.09,34.26"/>
        <path class="cls-25" d="M380.43,47.49c1.81-6.39,2.4-13.07,1.74-19.68,7.65,10.26,15.42,20.72,19.63,32.8s4.4,26.26-2.63,37"/>
        <path class="cls-25" d="M244.54,41.29c-7.16-5.41-15.27-9.43-23.91-11.84,16.66-4.6,33.63-9.25,50.9-8.63,17.27,.62,35.2,7.35,45.21,21.43"/>
        <path class="cls-25" d="M224.94,61.86c-8.47-2.86-29-3.29-37.94-2.86,14.37-9.59,40.55-20.21,57.14-25,16.59-4.79,35.73-4.07,49.65,6.16"/>
        <path class="cls-25" d="M297.92,22c-3.63-8.22-8.77-15.69-15.17-22,16.8,4.05,33.89,8.23,48.69,17.15s27.22,23.5,29.14,40.67"/>
        <path class="cls-25" d="M270.79,30.43c-6.02-6.65-13.24-12.11-21.28-16.09,17.22-1.42,34.76-2.81,51.61,1s33.21,13.78,40.42,29.48"/>
        <path class="cls-25" d="M424.62,113.91c3.95-4.43,7.03-9.56,9.09-15.12,2.13,11.22,4.27,22.66,2.93,34s-6.74,22.78-16.55,28.62"/>
        <path class="cls-25" d="M409.85,87.15c2.97-5.14,4.94-10.78,5.83-16.65,4.37,10.56,8.79,21.32,9.78,32.69s-2,23.68-10.4,31.39"/>
        <path class="cls-25" d="M434.48,150.11c5.6-1.95,10.78-4.94,15.27-8.81-3.58,10.85-7.25,21.89-13.92,31.15s-16.95,16.66-28.37,17"/>
        <path class="cls-25" d="M430.36,131.78c4.71-3.61,8.69-8.07,11.74-13.15,0,11.42,0,23.05-3.45,33.94s-10.87,21.13-21.61,25"/>
        <path class="cls-11" d="M403.45,131.66c-6.94-20.87-20-40.25-38.81-51.68-18.11-11-40.41-13.89-61.36-10.24-15.51,1.18-30.65,5.29-44.63,12.12-21.46,10.3-39.6,24.9-49.51,40.93-6.67,11.73-9,16.71-10.46,26.35-3.54,23.8,11.64,46.69,11.65,70.74,0,12.16-3.89,24-4.89,36.09-1.65,19.75,4.48,39.53,14,56.92s22.26,32.76,34.94,48c8,9.61,17.14,19.89,29.52,21.61,11.85,1.65,23.12-5.09,32.94-11.93,28.55-19.87,55.44-43.74,71.45-74.62,9.63-18.58,15-39.12,18.35-59.78,2.1-13,3.43-26.11,4-39.27,.99-21.99-.25-44.36-7.19-65.24Z"/>
        <path class="cls-4" d="M410.66,196.88c-.58,13.16-1.93,26.28-4.05,39.28-3.36,20.66-8.72,41.19-18.35,59.78-16,30.88-42.9,54.75-71.44,74.62-9.83,6.84-21.09,13.57-32.94,11.93-1.96-.28-3.89-.77-5.75-1.47,6.81-2.23,13.27-6.33,19.21-10.46,28.55-19.87,55.45-43.74,71.45-74.62,9.63-18.59,15-39.12,18.35-59.78,2.1-13,3.43-26.12,4-39.28,1-22-.27-44.35-7.21-65.22s-19.93-40.25-38.77-51.66c-10.52-6.28-22.32-10.12-34.52-11.24,18.72-1.86,38,1.5,54,11.24,18.79,11.44,31.87,30.81,38.81,51.69s8.18,43.22,7.21,65.19Z"/>
        <path class="cls-8" d="M261.74,291.69s21.71,15.33,48,6c-.03,.03-28.15,47.39-48-6Z"/>
        <ellipse class="cls-25" cx="251.79" cy="223.44" rx="5.84" ry="9.78"/>
        <ellipse class="cls-25" cx="322.16" cy="218.83" rx="5.84" ry="9.78"/>
        <path class="cls-7" d="M288.2,221.7c-.15,7.36-2.04,14.59-5.52,21.08-2.9,5.51-7.26,9.77-10.54,15-6.36,10.1,3.73,18.16,11.79,22.55,1.69,.93,3.21-1.66,1.51-2.59-5.55-3-13.91-7.81-12.09-15.49,1.13-4.78,6.31-8.9,9-13,5.51-8.15,8.59-17.7,8.86-27.54,0-.83-.67-1.5-1.5-1.5s-1.5,.67-1.5,1.5h-.01Z"/>
        <path class="cls-25" d="M304.24,199.81c7.74-1.31,15.76,0,23.14,2.66s14.17,6.75,20.7,11.12c.68,.46,1.61,.92,2.27,.42s.39-1.72-.05-2.53c-5.95-10.76-16.2-18.47-28.19-21.2-5.67-1.25-12-1.21-16.79,2.08-1.43,.89-2.54,2.21-3.18,3.76-.62,1.59-.25,3.4,.94,4.63,1.21,1.13,3.11,1.07,4.24-.14,.06-.06,.11-.12,.16-.19"/>
        <path class="cls-25" d="M267.89,196.59c-7.73-1.37-15.76-.15-23.16,2.49s-14.22,6.64-20.78,11c-.69,.45-1.62,.91-2.28,.41s-.37-1.73,.07-2.54c6.03-10.72,16.34-18.36,28.36-21,5.67-1.2,12-1.11,16.76,2.21,1.42,.9,2.52,2.23,3.15,3.79,.61,1.6,.21,3.41-1,4.62-1.22,1.12-3.12,1.05-4.24-.17-.06-.06-.11-.12-.16-.19"/>
        <path class="cls-21" d="M45,255s11-32,72-35l9,55-43,28"/>
        <circle class="cls-11" cx="69.27" cy="210.69" r="36.04"/>
        <path class="cls-4" d="M105.3,210.69c.09,19.88-15.96,36.07-35.84,36.16-12.92,.06-24.88-6.82-31.34-18.01,17.21,10.01,39.28,4.18,49.29-13.03,6.52-11.21,6.52-25.06,0-36.26,11.08,6.45,17.9,18.31,17.89,31.14Z"/>
        <path class="cls-6" d="M252,424c-57.8-51.77-111.74-129.54-134.67-203.68l.55,.59c-12.58,26.16-44.55,41.31-72.77,34.49,28.83,86.89,97.89,174.23,181.89,210.6"/>
        <path class="cls-4" d="M219.63,116c-6.12,8.14,.22,27.58,9.89,30.77s20.16,.42,30.21-1.25c17.35-2.89,36.27-9.39,53.44-5.53,13.44,3,28.17,10,31.47,23.33,.74,3,.85,6.16,2.08,9,3.73,8.53,16.38,9.65,24.06,4.38s11.44-14.51,14.43-23.33l-14.51-33.16-51.78-18.8"/>
        <path class="cls-25" d="M406.81,198.38c-7.94,9.6-20.23,14.48-32.59,12.94-3.82-.51-7.73-1.75-10.39-4.54-6-6.26-3.13-16.37-1.15-24.81,2.49-10.56,2.89-21.84-.53-32.13s-11-19.48-21.18-23.29c-16.31-6.1-34.72,2.35-51.82-.91-9.3-1.77-18.2-7-27.59-5.81-13.91,1.76-23.05,16.76-36.83,19.34-8.5,1.59-17-1.89-25-5.29,3.74-17-8.78-33.66-8.67-51.1,.07-13.69,8.18-26.45,19.07-34.75s24.27-12.66,37.68-15.43c44.04-8.95,89.83-2.27,129.47,18.9,9.29,5,18.27,10.86,25.4,18.64,6.76,7.38,11.65,16.27,15.78,25.38,10.13,22.38,16,47.17,13.3,71.58-1.06,9.42-3.46,18.87-8.59,26.85s-13.24,14.35-22.61,15.84"/>
        <ellipse class="cls-11" cx="404.48" cy="223.89" rx="39.74" ry="27.89" transform="translate(98.83 570.75) rotate(-77.58)"/>
        <path class="cls-5" d="M431.73,229.9c-4.73,21.44-20.73,36.1-35.79,32.81-5.77-1.27-10.56-5-14-10.35,1.28,.59,2.62,1.05,4,1.35,15.06,3.29,31.06-11.37,35.79-32.81,2.91-13.21,.85-25.89-4.68-34.46,12.48,5.69,18.95,24.01,14.68,43.46Z"/>
        <path class="cls-7" d="M389.83,236.83c3.17-12.47,11.14-30,27.23-25.83,.8,.22,1.63-.25,1.85-1.05s-.25-1.63-1.05-1.85c-17.77-4.57-27.3,13.73-30.91,27.94-.48,1.87,2.41,2.67,2.89,.79h0Z"/>
        <path class="cls-7" d="M397.4,217.45c4.18,3.45,7.16,8.14,8.51,13.39,.47,1.87,3.36,1.08,2.89-.8-1.47-5.76-4.72-10.91-9.28-14.71-1.48-1.22-3.62,.89-2.12,2.12h0Z"/>
        <path class="cls-8" d="M211.48,153.61c.05-1.46,.15-2.91,.31-4.35,0-1.66-1.34-3-3-3-1.64,.04-2.96,1.36-3,3-.16,1.44-.26,2.89-.31,4.35,0,1.66,1.34,3,3,3,1.64-.04,2.96-1.36,3-3Z"/>
        <path class="cls-8" d="M215.15,174.13c-1.25-3.17-2.21-6.45-2.86-9.79-.75-3.79-6.53-2.18-5.79,1.59,.66,3.34,1.61,6.62,2.86,9.79,.47,1.57,2.1,2.49,3.69,2.1,1.43-.4,2.7-2.17,2.1-3.69h0Z"/>
        <path class="cls-8" d="M218.66,506l2.7-10c1-3.74-4.78-5.33-5.78-1.6l-2.71,10c-1,3.73,4.78,5.33,5.79,1.6h0Z"/>
        <path class="cls-8" d="M225.31,485.11l.29-.78c.22-.78,.11-1.61-.3-2.31-.84-1.43-2.68-1.91-4.11-1.07-.67,.4-1.17,1.04-1.37,1.79l-.29,.77c-.22,.78-.11,1.61,.3,2.31,.84,1.43,2.67,1.91,4.1,1.08,.67-.39,1.17-1.03,1.38-1.79Z"/>
        <path class="cls-20" d="M417.2,589.72l23.5-7.5c.92-.29,.52-1.74-.4-1.44l-23.5,7.5c-.92,.29-.52,1.74,.4,1.44Z"/>
        <path class="cls-20" d="M416.3,590.22l15,4c.41,.08,.8-.19,.88-.6,.07-.36-.13-.71-.48-.84l-15-4c-.41-.08-.8,.19-.88,.6-.07,.36,.13,.71,.48,.84Z"/>
        <circle class="cls-16" cx="576" cy="540" r="8"/>
        <circle class="cls-16" cx="64" cy="414" r="8"/>
        <circle class="cls-16" cx="22.5" cy="472.5" r="22.5"/>
        <g class="cls-30">
          <circle class="cls-18" cx="430" cy="302" r="8"/>
          <circle class="cls-18" cx="388.5" cy="360.5" r="22.5"/>
        </g>
        <circle class="cls-16" cx="611.5" cy="508.5" r="22.5"/>
        <ellipse class="cls-13" cx="236.1" cy="69.61" rx="30" ry="17.89" transform="translate(19.93 187.34) rotate(-45)"/>
        <circle class="cls-13" cx="278" cy="54" r="6"/>
        <ellipse class="cls-13" cx="291" cy="30.5" rx="9" ry="8.5"/>
        <ellipse class="cls-26" cx="229.66" cy="493.58" rx="30" ry="17.89" transform="translate(-310.12 564.29) rotate(-72.51)"/>
        <circle class="cls-26" cx="235.18" cy="537.98" r="6"/>
        <ellipse class="cls-26" cx="220.36" cy="560.33" rx="8.5" ry="9" transform="translate(-233.9 165.14) rotate(-27.51)"/>
        <circle class="cls-3" cx="45.36" cy="340.85" r="14.5"/>
        <circle class="cls-3" cx="16.85" cy="302.48" r="7.5"/>
        <path class="cls-6" d="M576.9,220.58l-86.77-26.13c-13.02-3.92-26.75,3.46-30.67,16.48l-12.69,42.13c-3.92,13.01,3.45,26.74,16.46,30.67,0,0,0,0,.01,0l8.84,2.66,3.17,23c.49,3.57,3.78,6.07,7.36,5.58,1.5-.21,2.89-.93,3.91-2.04l16-17.37,47.48,14.3c13.01,3.92,26.74-3.45,30.67-16.46,0,0,0,0,0-.01l12.69-42.14c3.92-13.01-3.45-26.74-16.46-30.67Z"/>
        <path class="cls-23" d="M347.5,772.5c-.7,11.94,8,18.5,19.13,18.5h26.37c.83,0,1.5-.67,1.5-1.5s-.67-1.5-1.5-1.5h-21.79c-2.47,0-5,.14-7.44,0-8.58-.48-13.77-7.07-13.27-15.5,.11-1.93-2.89-1.92-3,0Z"/>
        <path class="cls-23" d="M240.5,757.5c.5,8.42-4.66,15-13.27,15.5-2.46,.14-5,0-7.44,0h-21.79c-.83,0-1.5,.67-1.5,1.5s.67,1.5,1.5,1.5h26.37c11.14,0,19.83-6.55,19.13-18.5-.11-1.92-3.11-1.93-3,0Z"/>
        <path class="cls-20" d="M214.6,458.5c-15.46-7.02-29.96-15.97-43.17-26.64-.74-.59-1.81,.46-1.06,1.06,13.3,10.76,27.9,19.79,43.47,26.88,.87,.39,1.64-.9,.76-1.3Z"/>
        <path class="cls-20" d="M397.75,526.5c3.74,49.66,3.5,100.57-2.54,150-2.3,18.84-5.62,37.68-11.43,55.79-.3,.92,1.15,1.32,1.44,.4,10.4-32.4,13.55-67.1,15.16-100.93,1.39-29.21,1.22-58.51-.13-87.72-.27-5.85-.56-11.71-1-17.55-.07-1-1.57-1-1.5,0h0Z"/>
        <path class="cls-20" d="M59.78,265.7c5.08,15.77,12.66,31,20.54,45.49,18.52,34.35,42.41,65.53,70.76,92.36,20.35,19.13,43.1,35.53,67.69,48.78,.85,.45,1.61-.84,.76-1.3-68.2-36.69-121.76-98.89-152.14-169.83-2.23-5.2-4.39-10.49-6.17-15.9-.29-.91-1.74-.52-1.44,.4h0Z"/>
        <path class="cls-20" d="M323.75,412.07c-1.1,11.69-19.2,13.73-28,13.41s-26.68-3.8-26.89-15.54c-.08-.28-.37-.44-.64-.36-.17,.05-.31,.18-.36,.36,.22,12.45,18.44,16.21,27.92,16.57s27.9-2,29.07-14.44c.06-.66-1-.66-1,0h-.1Z"/>
        <path class="cls-20" d="M371,487c17.49,20.14,33.9,46.05,37.92,72.74,.14,1,1.59,.54,1.44-.4-2.7-18-11.26-34.68-21-49.81-5.21-8.25-11.02-16.11-17.36-23.53-.63-.73-1.69,.33-1.06,1.06l.06-.06Z"/>
        <g class="cls-29">
          <rect class="cls-19" x="526" y="669" width="5" height="12"/>
        </g>
        <g class="cls-29">
          <rect class="cls-19" x="526" y="575" width="5" height="12"/>
        </g>
        <g class="cls-29">
          <rect class="cls-19" x="568" y="628" width="12" height="5"/>
        </g>
        <circle class="cls-22" cx="490.13" cy="241.21" r="10"/>
        <circle class="cls-22" cx="516.5" cy="249" r="10"/>
        <circle class="cls-22" cx="542.87" cy="256.79" r="10"/>
        <path class="cls-8" d="M148,84.23c2.17-1.1,4.38-2.12,6.65-3,1.56-.48,2.48-2.1,2.09-3.69-.39-1.43-2.17-2.7-3.69-2.1-2.74,1.1-5.44,2.3-8.08,3.63-3.45,1.74-.41,6.92,3,5.18l.03-.02Z"/>
        <path class="cls-8" d="M109.28,117.26c7-9.62,16.15-18.05,25.67-25,3.08-2.25,.09-7.46-3-5.18-10.42,7.62-20.23,16.66-27.83,27.17-2.26,3.13,2.94,6.13,5.19,3h-.03Z"/>
        <path class="cls-18" d="M449.67,340.5c-.31,6.62-5.31,12.17-12.17,12.17-6.72,0-12.17-5.46-12.16-12.18,0-6.72,5.45-12.16,12.16-12.16,6.85,0,11.86,5.56,12.17,12.17,.12,2.34,3.77,2.35,3.66,0-.41-8.59-6.92-15.83-15.83-15.83s-15.83,7.09-15.83,15.83,7.09,15.83,15.83,15.83,15.42-7.23,15.83-15.83c.11-2.35-3.54-2.34-3.66,0Z"/>
        <path class="cls-18" d="M36.67,527.5c-.31,6.62-5.31,12.17-12.17,12.17s-12.17-5.45-12.17-12.17,5.45-12.17,12.17-12.17,11.86,5.56,12.17,12.17c.12,2.34,3.77,2.35,3.66,0-.41-8.59-6.92-15.83-15.83-15.83s-15.83,7.09-15.83,15.83,7.09,15.83,15.83,15.83,15.42-7.23,15.83-15.83c.11-2.35-3.54-2.34-3.66,0Z"/>
        <path class="cls-2" d="M222,728s72,65,152,14"/>
        <ellipse class="cls-10" cx="54.5" cy="199" rx="16" ry="10.5" transform="translate(-134.46 116.16) rotate(-51.01)"/>
        <circle class="cls-10" cx="79" cy="192" r="3"/>
      </g>
    </g>
  </g>
</svg>