<?xml version="1.0" encoding="UTF-8"?>
<svg id="Layer_2" data-name="Layer 2" xmlns="http://www.w3.org/2000/svg" xmlns:xlink="http://www.w3.org/1999/xlink" viewBox="0 0 1128.57 1165.84">
  <defs>
    <style>
      .cls-1 {
        fill: none;
      }

      .cls-2 {
        fill: url(#linear-gradient);
        opacity: .52;
      }

      .cls-2, .cls-3, .cls-4, .cls-5, .cls-6 {
        isolation: isolate;
      }

      .cls-7 {
        fill: #f9895d;
      }

      .cls-8 {
        fill: #f9eded;
      }

      .cls-9 {
        fill: #02263c;
      }

      .cls-10 {
        fill: #021b28;
      }

      .cls-11 {
        fill: #f6c375;
      }

      .cls-12 {
        fill: #ff4a51;
      }

      .cls-13 {
        fill: #ea754b;
      }

      .cls-14, .cls-3 {
        fill: #fff;
      }

      .cls-15 {
        fill: #f1dee0;
      }

      .cls-16 {
        fill: #f2a641;
      }

      .cls-17 {
        fill: #ffb999;
      }

      .cls-18 {
        fill: #e8463a;
      }

      .cls-19 {
        fill: #fe6f5d;
      }

      .cls-20 {
        fill: #ff9271;
      }

      .cls-21 {
        fill: #fc8c60;
      }

      .cls-22 {
        fill: #febc2e;
      }

      .cls-23 {
        fill: #83ce00;
      }

      .cls-24 {
        fill: #ceb6b9;
      }

      .cls-25 {
        fill: #ade701;
      }

      .cls-26 {
        fill: #ccb0b4;
      }

      .cls-27 {
        fill: #ce2420;
      }

      .cls-28 {
        fill: #dd2f22;
      }

      .cls-29 {
        fill: #1e6882;
      }

      .cls-30 {
        fill: #4092c1;
      }

      .cls-31 {
        fill: #1b739b;
      }

      .cls-32 {
        fill: #26c940;
      }

      .cls-33 {
        fill: #2b2b2b;
      }

      .cls-34 {
        fill: #78ad04;
      }

      .cls-3 {
        opacity: .5;
      }

      .cls-4 {
        fill: #c9522d;
        opacity: .49;
      }

      .cls-5 {
        fill: #c6221e;
        opacity: .55;
      }

      .cls-6 {
        fill: #c7dbff;
        opacity: .24;
      }
    </style>
    <linearGradient id="linear-gradient" x1="775.26" y1="622.83" x2="775.26" y2="191.8" gradientTransform="translate(0 678.22) scale(1 -1)" gradientUnits="userSpaceOnUse">
      <stop offset="0" stop-color="#f7fafc" stop-opacity=".5"/>
      <stop offset=".16" stop-color="#ecf3fd" stop-opacity=".61"/>
      <stop offset=".42" stop-color="#dce9fe" stop-opacity=".78"/>
      <stop offset=".66" stop-color="#d1e1fe" stop-opacity=".9"/>
      <stop offset=".86" stop-color="#caddff" stop-opacity=".97"/>
      <stop offset=".99" stop-color="#c7dbff"/>
    </linearGradient>
  </defs>
  <g id="Layer_1-2" data-name="Layer 1">
    <g id="Layer_2-2" data-name="Layer 2">
      <g id="Layer_3" data-name="Layer 3">
        <rect class="cls-2" x="421.96" y="25.69" width="706.61" height="505.27" rx="31.97" ry="31.97"/>
        <path class="cls-14" d="M519.73,143.64h511.07c9.51,0,17.22,7.71,17.22,17.22h0c0,9.51-7.71,17.22-17.22,17.22h-511.07c-9.51,0-17.22-7.71-17.22-17.22h0c0-9.51,7.71-17.22,17.22-17.22Z"/>
        <rect class="cls-14" x="504.45" y="216.11" width="69.96" height="55.56" rx="5.92" ry="5.92"/>
        <rect class="cls-14" x="600.59" y="248.79" width="441.4" height="16.49" rx="8.24" ry="8.24"/>
        <path class="cls-14" d="M608.91,223.32h361.92c4.6,0,8.32,3.72,8.32,8.32h0c0,4.6-3.72,8.32-8.32,8.32h-361.92c-4.6,0-8.32-3.72-8.32-8.32h0c0-4.6,3.72-8.32,8.32-8.32Z"/>
        <rect class="cls-14" x="600.59" y="342.66" width="441.4" height="16.49" rx="8.24" ry="8.24"/>
        <path class="cls-14" d="M608.91,317.19h361.92c4.6,0,8.32,3.73,8.32,8.32h0c0,4.6-3.72,8.32-8.32,8.32h-361.92c-4.6,0-8.32-3.73-8.32-8.32h0c0-4.6,3.72-8.32,8.32-8.32Z"/>
        <rect class="cls-14" x="600.59" y="433.66" width="441.4" height="16.49" rx="8.24" ry="8.24"/>
        <path class="cls-14" d="M608.91,408.19h361.92c4.6,0,8.32,3.73,8.32,8.32h0c0,4.6-3.72,8.32-8.32,8.32h-361.92c-4.6,0-8.32-3.73-8.32-8.32h0c0-4.6,3.72-8.32,8.32-8.32Z"/>
        <rect class="cls-14" x="504.45" y="309.69" width="69.96" height="55.56" rx="5.92" ry="5.92"/>
        <rect class="cls-3" x="504.45" y="403.28" width="69.96" height="55.56" rx="5.92" ry="5.92"/>
        <circle class="cls-12" cx="449.6" cy="56.21" r="5.75"/>
        <circle class="cls-22" cx="470.43" cy="56.21" r="5.75"/>
        <circle class="cls-32" cx="491.26" cy="56.21" r="5.75"/>
        <rect class="cls-6" x="422.21" y="80.29" width="705.94" height="2.54"/>
        <line class="cls-1" x1="433.42" y1="312.1" x2="428.15" y2="304.54"/>
        <polyline class="cls-17" points="429.75 996.42 420.72 1053.74 449.8 1068.42 481.7 1012.8"/>
        <polygon class="cls-21" points="477.09 1020.99 465.38 1041.26 426.08 1019.69 428.81 1002.17 477.09 1020.99"/>
        <path class="cls-19" d="M455.49,1102c0,6.38,.4,11.65,4,16.19l.08,.09c.48,.58,.98,1.14,1.52,1.66l27.26,29.51c2.72,3.07,3.25,7.51,1.33,11.13h0c-2.47,4.7-8.22,6.59-13,4.28l-79.68-37.86c-6.93-3.33-10.01-11.53-7-18.6l21.77-51.11c1.95-4.57,7.23-6.7,11.81-4.76,.06,.03,.13,.06,.19,.09l26.93,12.38c4.18,1.89,6.27,6.64,4.84,11l-.05,26Z"/>
        <path class="cls-34" d="M642.8,471.08c2.14,3.55,7.38,3.15,10.61,5.74,7.4,5.93,16.16,9.1,34.89,8.23-1.24,4.92-5.59,8.39-10,10.89-14.8,8.25-32.46,9.65-48.38,3.84"/>
        <path class="cls-23" d="M638.6,468.73c.38,5.66,7,8.46,9.31,13.63,5.27,11.83,13.94,21.18,37.23,31.85-4.58,5.19-12,6.69-18.95,7-23.16,.75-45.49-8.62-61.19-25.66"/>
        <path class="cls-34" d="M531.55,642.87c2.14,3.54,7.38,3.15,10.62,5.74,7.39,5.92,16.16,9.1,34.88,8.23-1.23,4.91-5.58,8.39-10,10.88-14.8,8.25-32.46,9.66-48.38,3.85"/>
        <path class="cls-23" d="M527.36,640.52c.38,5.65,7,8.45,9.3,13.63,5.28,11.85,13.94,21.17,37.24,31.85-4.58,5.2-12,6.7-19,7-23.15,.76-45.49-8.6-61.2-25.62"/>
        <path class="cls-34" d="M604.28,484.93c-4.06-.8-5.47-5.86-9-8-8.09-4.94-14.06-12.1-19.62-30-4.2,2.84-6,8.11-6.83,13.1-2.72,16.73,1.98,33.81,12.86,46.8"/>
        <path class="cls-23" d="M607.92,488.08c-5.45,1.56-10.33-3.7-16-4.11-12.92-.93-24.66-5.9-42.63-24.17-3.32,6.08-2.19,13.6-.09,20.2,7.17,22.03,23.57,39.85,44.93,48.82"/>
        <path class="cls-34" d="M554.34,534.88c-4.07-.81-5.48-5.87-9-8-8.08-4.93-14.05-12.09-19.62-30-4.19,2.83-6,8.1-6.83,13.1-2.71,16.73,1.98,33.81,12.86,46.8"/>
        <path class="cls-23" d="M558,538c-5.44,1.57-10.33-3.7-16-4.1-12.92-.94-24.66-5.9-42.62-24.17-3.33,6.08-2.2,13.6-.1,20.2,7.17,22.03,23.58,39.85,44.94,48.82"/>
        <path class="cls-34" d="M490.77,620.39c-4.07-.8-5.48-5.86-9-8-8.08-4.94-14.05-12.1-19.62-30-4.19,2.84-6,8.11-6.82,13.1-2.72,16.73,1.97,33.81,12.86,46.8"/>
        <path class="cls-23" d="M494.4,623.54c-5.44,1.57-10.33-3.7-16-4.11-12.92-.93-24.65-5.9-42.62-24.16-3.33,6.07-2.2,13.59-.1,20.19,7.18,22.03,23.58,39.85,44.94,48.82"/>
        <path class="cls-25" d="M551.11,494c13.71,36.74,47.22,57.81,78.42,69.81,18.81-33.05,38.31-72.47,42.37-110.64,1.45-13.53,4.52-35.48-8.88-37.79-6.76-1.15-19.32,6.55-25.11,10.21-31.17,19.81-60.25,42.73-86.8,68.41Z"/>
        <path class="cls-23" d="M489.8,563.88h0c18.9,38,60.08,57.27,92.85,66.86,9.87-11.88,19.28-24.14,28-36.89,6.72-9.81,13.05-19.82,18.86-30-31.2-12-64.71-33.07-78.42-69.81-22.35,21.52-42.85,44.89-61.29,69.84Z"/>
        <path class="cls-25" d="M415.55,706.4l95.44,.28c24.86-24.34,49.47-49.19,71.66-75.92-32.77-9.59-73.95-28.83-92.85-66.86-32.26,43.66-57.87,91.92-74.25,142.5Z"/>
        <path class="cls-34" d="M451.72,707.87c-.22,0-.43-.08-.6-.21-.44-.33-.53-.96-.2-1.4h0l204.33-269.6c.33-.44,.95-.54,1.4-.21,0,0,0,0,.01,0,.44,.33,.53,.96,.2,1.4h0s-204.32,269.61-204.32,269.61c-.19,.25-.49,.4-.81,.4Z"/>
        <path class="cls-34" d="M629.57,530.08c-13.12-.16-26.13-2.37-38.57-6.55-.52-.19-.78-.77-.59-1.29,.19-.52,.77-.78,1.29-.59,.21,.08,21.65,7.85,44.41,6.18,.55-.04,1.03,.37,1.08,.92s-.37,1.03-.92,1.08c-2.25,.17-4.48,.25-6.69,.25Z"/>
        <path class="cls-34" d="M585,530.61c-.25,0-.49-.09-.67-.25-.13-.11-13-11.64-20.13-27.48-.23-.51,0-1.1,.51-1.33s1.1,0,1.33,.51c6.91,15.45,19.5,26.68,19.62,26.79,.42,.36,.47,.99,.11,1.41-.19,.22-.47,.35-.77,.35h0Z"/>
        <path class="cls-34" d="M554.46,570.1c-.26,0-.5-.1-.69-.28-.12-.11-12.64-12.06-19.21-28.12-.21-.52,.04-1.11,.55-1.32s1.11,.04,1.32,.55c6.39,15.66,18.6,27.31,18.72,27.42,.39,.39,.39,1.02,0,1.41,0,0,0,0,0,0-.18,.19-.43,.31-.69,.32Z"/>
        <path class="cls-34" d="M506.27,633.83c-.31,0-.61-.14-.8-.39-.11-.14-10.66-13.85-14.69-30.73-.13-.55,.21-1.11,.77-1.23s1.11,.21,1.23,.77c3.94,16.46,14.22,29.83,14.33,30,.34,.43,.27,1.06-.16,1.4-.18,.14-.4,.22-.63,.22l-.05-.03Z"/>
        <path class="cls-34" d="M538.76,652.67c-13.12-.16-26.13-2.37-38.57-6.54-.52-.19-.79-.77-.6-1.29,.19-.52,.77-.79,1.29-.6,.22,.08,21.66,7.85,44.42,6.19,.55-.04,1.03,.37,1.08,.92s-.37,1.03-.92,1.08c-2.25,.17-4.45,.24-6.69,.24Z"/>
        <path class="cls-34" d="M564.29,598.52h-.12c-8.64-1.02-17.15-2.94-25.39-5.73-.52-.19-.79-.77-.59-1.29,.19-.52,.77-.79,1.29-.6,8.09,2.73,16.45,4.62,24.93,5.62,.55,.03,.97,.51,.94,1.06s-.51,.97-1.06,.94Z"/>
        <path class="cls-34" d="M647.72,488.41h-.12c-8.64-1.02-17.14-2.94-25.38-5.73-.52-.19-.79-.77-.6-1.29,.19-.52,.77-.79,1.29-.6h0c8.09,2.73,16.45,4.62,24.93,5.62,.55,.03,.97,.51,.94,1.06s-.51,.97-1.06,.94h0Z"/>
        <path class="cls-34" d="M593.23,560.49h-.12c-8.64-1.02-17.14-2.94-25.38-5.73-.52-.19-.79-.77-.59-1.29,.19-.52,.77-.79,1.29-.6,8.09,2.74,16.44,4.63,24.92,5.63,.55,.03,.97,.51,.94,1.06s-.51,.97-1.06,.94h0Z"/>
        <path class="cls-34" d="M607.14,501.38c-.28,0-.54-.11-.73-.31-3.49-3.83-6.71-7.89-9.64-12.15-.32-.45-.21-1.08,.24-1.39,0,0,0,0,0,0,.45-.32,1.08-.21,1.39,.24,0,0,0,0,0,0,2.88,4.18,6.03,8.16,9.45,11.91,.39,.39,.39,1.02,0,1.41,0,0,0,0,0,0-.2,.19-.46,.29-.73,.28Z"/>
        <path class="cls-34" d="M481,668c-.28,0-.54-.12-.73-.32-3.5-3.82-6.72-7.87-9.65-12.14-.32-.45-.21-1.08,.24-1.39,0,0,0,0,0,0,.45-.32,1.08-.21,1.39,.24,0,0,0,0,0,0,2.88,4.18,6.04,8.15,9.45,11.91,.39,.39,.39,1.02,0,1.41,0,0,0,0,0,0-.19,.19-.45,.29-.72,.28Z"/>
        <path class="cls-34" d="M447,659.82c-4.56,4.86-9,10-12,16-2.83,5.76-4.46,12.03-4.8,18.43-.26,4.58-.21,9.16,.17,13.73,.14,1.92,3.16,1.94,3,0-.52-7.13-.67-14.44,.93-21.45,1.35-5.7,3.85-11.07,7.34-15.77,2.3-3.07,4.79-6,7.46-8.76,1.33-1.42-.8-3.56-2.13-2.14l.03-.04Z"/>
        <path class="cls-14" d="M665.39,466.79c1.47-6.56,2.49-13.21,3.33-19.88,0-1.66-1.34-3-3-3-1.63,.05-2.95,1.37-3,3-.72,5.68-1.76,12.25-3.12,18.27-.44,1.61,.5,3.27,2.1,3.71,1.61,.44,3.27-.5,3.72-2.11h-.03Z"/>
        <ellipse class="cls-14" cx="666.84" cy="437.36" rx="2.46" ry="3.31"/>
        <path class="cls-34" d="M45.5,503.21c-2.14,3.55-7.38,3.15-10.62,5.74-7.39,5.92-16.16,9.1-34.88,8.23,1.24,4.92,5.58,8.39,10,10.89,14.81,8.25,32.47,9.65,48.39,3.84"/>
        <path class="cls-23" d="M49.69,500.86c-.38,5.66-7,8.46-9.3,13.63-5.28,11.83-13.94,21.18-37.24,31.85,4.58,5.19,12,6.69,19,7,23.15,.76,45.49-8.59,61.2-25.62"/>
        <path class="cls-34" d="M156.75,675c-2.15,3.54-7.39,3.15-10.62,5.74-7.4,5.92-16.16,9.1-34.89,8.23,1.24,4.91,5.59,8.38,10,10.88,14.8,8.25,32.46,9.66,48.38,3.85"/>
        <path class="cls-23" d="M160.94,672.65c-.38,5.65-7,8.45-9.3,13.63-5.28,11.82-13.95,21.17-37.24,31.84,4.58,5.2,12,6.7,19,7,23.15,.76,45.49-8.6,61.2-25.62"/>
        <path class="cls-34" d="M84,517.06c4.07-.8,5.48-5.87,9-8,8.08-4.94,14-12.1,19.62-30,4.19,2.83,6,8.11,6.83,13.1,2.71,16.73-1.98,33.81-12.86,46.8"/>
        <path class="cls-23" d="M80.38,520.21c5.44,1.56,10.33-3.7,16-4.11,12.92-.93,24.66-5.9,42.62-24.17,3.33,6.08,2.2,13.6,.1,20.2-7.16,22.06-23.58,39.9-44.96,48.87"/>
        <path class="cls-34" d="M134,567c4.06-.81,5.48-5.87,9-8,8.09-4.93,14.06-12.09,19.62-30,4.2,2.83,6,8.1,6.83,13.1,2.72,16.73-1.98,33.81-12.86,46.8"/>
        <path class="cls-23" d="M130.33,570.15c5.44,1.57,10.33-3.7,16-4.1,12.91-.94,24.65-5.9,42.62-24.17,3.33,6.07,2.19,13.6,.09,20.2-7.17,22.03-23.57,39.85-44.93,48.82"/>
        <path class="cls-34" d="M197.53,652.52c4.06-.8,5.48-5.86,9-8,8.09-4.94,14.06-12.1,19.62-30,4.2,2.84,6,8.11,6.83,13.1,2.72,16.73-1.98,33.81-12.86,46.8"/>
        <path class="cls-23" d="M193.89,655.67c5.45,1.57,10.33-3.7,16-4.11,12.92-.93,24.66-5.9,42.63-24.16,3.32,6.07,2.19,13.59,.09,20.19-7.17,22.03-23.57,39.85-44.93,48.82"/>
        <path class="cls-25" d="M137.19,526.13c-13.71,36.75-47.19,57.87-78.42,69.87-18.77-33.1-38.31-72.52-42.38-110.69-1.44-13.53-4.52-35.48,8.89-37.79,6.75-1.15,19.32,6.55,25.11,10.21,31.17,19.81,60.25,42.73,86.8,68.4Z"/>
        <path class="cls-23" d="M198.5,596h0c-18.9,38-60.09,57.27-92.85,66.86-9.87-11.86-19.28-24.12-28.03-36.86-6.71-9.81-13-19.82-18.85-30,31.2-12,64.71-33.07,78.42-69.82,22.35,21.52,42.86,44.88,61.31,69.82Z"/>
        <path class="cls-25" d="M272.75,738.53l-95.44,.28c-24.87-24.34-49.47-49.19-71.66-75.92,32.76-9.59,73.95-28.83,92.85-66.86,32.26,43.66,57.87,91.97,74.25,142.5Z"/>
        <path class="cls-34" d="M236.57,740c-.31,0-.61-.15-.8-.4L31.44,470c-.33-.44-.24-1.08,.2-1.41,.44-.33,1.08-.24,1.41,.2h0l204.32,269.6c.34,.44,.26,1.07-.18,1.4-.18,.14-.39,.21-.62,.21Z"/>
        <path class="cls-34" d="M58.72,562.2c-2.2,0-4.44-.07-6.68-.23-.55-.04-.97-.52-.93-1.07s.52-.97,1.07-.93c22.78,1.67,44.21-6.1,44.42-6.18,.52-.19,1.1,.07,1.29,.59,.19,.52-.07,1.1-.59,1.29h0c-12.44,4.18-25.46,6.38-38.58,6.53Z"/>
        <path class="cls-34" d="M103.3,562.74c-.29,0-.56-.12-.75-.34-.37-.41-.34-1.04,.07-1.41,0,0,0,0,0,0,.13-.11,12.72-11.36,19.63-26.79,.23-.51,.82-.73,1.33-.51s.73,.82,.5,1.33c-7.09,15.84-20,27.36-20.12,27.48-.18,.16-.42,.25-.67,.25Z"/>
        <path class="cls-34" d="M133.83,602.23c-.55,0-1.01-.43-1.02-.98,0-.29,.11-.56,.33-.76,.13-.11,12.34-11.78,18.73-27.43,.21-.51,.8-.76,1.31-.55,.51,.21,.76,.8,.55,1.31-6.56,16.07-19.08,28-19.21,28.13-.19,.18-.43,.28-.69,.28Z"/>
        <path class="cls-34" d="M182,666c-.55,0-1-.44-1.01-.99,0-.23,.07-.45,.22-.63,.1-.14,10.39-13.52,14.32-30,.13-.55,.68-.89,1.23-.77s.89,.68,.77,1.23h0c-4,16.88-14.59,30.59-14.69,30.73-.19,.27-.51,.43-.84,.42Z"/>
        <path class="cls-34" d="M149.53,684.8c-2.2,0-4.43-.07-6.68-.24-.55-.04-.97-.52-.93-1.07,.04-.55,.52-.97,1.07-.93,22.79,1.67,44.21-6.11,44.42-6.19,.52-.19,1.1,.07,1.3,.6,.19,.52-.07,1.1-.6,1.29-12.44,4.17-25.46,6.38-38.58,6.54Z"/>
        <path class="cls-34" d="M124,630.65c-.55,.03-1.03-.39-1.06-.94-.03-.55,.39-1.03,.94-1.06,8.49-1.01,16.85-2.9,24.94-5.65,.52-.19,1.1,.08,1.29,.6,.19,.52-.08,1.1-.6,1.29-8.24,2.79-16.74,4.71-25.38,5.73l-.13,.03Z"/>
        <path class="cls-34" d="M40.58,520.54c-.55,.03-1.03-.39-1.06-.94-.03-.55,.39-1.03,.94-1.06,8.48-1,16.83-2.89,24.92-5.62,.52-.19,1.1,.07,1.3,.6s-.07,1.1-.6,1.29c-8.24,2.79-16.74,4.71-25.38,5.73h-.12Z"/>
        <path class="cls-34" d="M95.06,592.62c-.51,0-.94-.38-1-.89-.06-.55,.32-1.04,.87-1.11,8.49-1,16.84-2.88,24.94-5.62,.52-.19,1.1,.07,1.3,.6s-.07,1.1-.6,1.29c-8.24,2.79-16.75,4.71-25.39,5.73h-.12Z"/>
        <path class="cls-34" d="M81.16,533.51c-.55,0-1.01-.43-1.02-.98,0-.27,.1-.53,.29-.72,3.42-3.75,6.57-7.73,9.45-11.91,.32-.46,.94-.57,1.4-.25,.46,.32,.57,.94,.25,1.4-2.93,4.27-6.16,8.33-9.65,12.15-.19,.2-.45,.31-.72,.31Z"/>
        <path class="cls-34" d="M207.32,700.1c-.55,0-1.01-.43-1.02-.98,0-.27,.1-.53,.29-.72,3.4-3.75,6.54-7.73,9.41-11.91,.32-.46,.94-.57,1.4-.25s.57,.94,.25,1.4c-2.92,4.27-6.15,8.32-9.64,12.14-.18,.19-.43,.31-.69,.32Z"/>
        <path class="cls-34" d="M239.19,694.09c4.37,4.65,8.54,9.57,11.46,15.27,2.67,5.43,4.19,11.34,4.47,17.38,.24,4.46,.18,8.94-.19,13.39-.14,1.93,2.87,1.92,3,0,.55-7.46,.63-15.07-1.06-22.4-1.46-6-4.11-11.64-7.8-16.59-2.4-3.22-4.98-6.29-7.75-9.19-1.33-1.42-3.46,.72-2.14,2.14h.01Z"/>
        <path class="cls-14" d="M28.73,497.31c-.7-3.09-1.29-6.21-1.81-9.33s-1-6.17-1.31-8.94c-.2-1.56-1.25-3.09-3-3-1.47,.06-3.23,1.34-3,3,.84,6.67,1.86,13.32,3.33,19.88,.43,1.6,2.08,2.54,3.68,2.11,0,0,.02,0,.03,0,1.58-.47,2.51-2.11,2.11-3.71h-.03Z"/>
        <ellipse class="cls-14" cx="21.46" cy="469.49" rx="2.46" ry="3.31"/>
        <path class="cls-9" d="M47.54,341.45c2.87,11.68,8.38,22.54,16.1,31.76,7.7,9.33,17.37,16.84,28.31,22,6.13,2.89,12.62,4.94,19.29,6.11,1.89,.32,2.7-2.57,.79-2.9-23-4-43.31-19.06-54.51-39.41-3.17-5.76-5.55-11.91-7.08-18.3-.45-1.88-3.34-1.09-2.9,.79v-.05Z"/>
        <path class="cls-9" d="M55.08,262.09c-14.75,14.62-21.77,35.28-22.38,55.75-.22,11.51,1.13,22.99,4,34.13,2.59,10.48,6.39,20.72,12.2,29.87,6.08,9.54,13.95,17.82,23.17,24.38,1.43,.84,3.27,.36,4.11-1.06,0,0,0,0,0,0,.82-1.45,.33-3.29-1.1-4.15-7.53-5.39-14.07-12.04-19.33-19.67-5.58-8.3-9.73-17.48-12.28-27.15-5.55-20.05-7.12-41.8-.27-61.73,3.29-9.84,8.81-18.79,16.12-26.16,2.74-2.72-1.5-7-4.24-4.24v.04Z"/>
        <path class="cls-9" d="M47.57,323.65c-2.75,24,6.52,48.71,23.51,65.68,4.77,4.78,10.15,8.89,16,12.25,.74,.38,1.64,.08,2.02-.65,.34-.68,.13-1.5-.5-1.93-20.31-11.63-34.2-33-37.71-56-.96-6.41-1.07-12.93-.32-19.37,.22-1.92-2.79-1.9-3,0v.02Z"/>
        <path class="cls-9" d="M131.22,268.7c-19.94-8.55-42.55-7.15-62.46,.78-9.86,4-19.18,9.22-27.76,15.52-8.77,6.35-16.75,13.58-23.15,22.36-6.69,9.16-11.5,19.55-14.16,30.57-.9,3.76,4.88,5.36,5.78,1.6,2.22-9.23,6.03-18.01,11.26-25.93,5.54-8.18,12.4-15.37,20.32-21.28,15.7-12,34.32-21.51,54.27-23.21,11.11-.95,22.57,.35,32.87,4.77,1.44,.78,3.23,.31,4.1-1.08,.74-1.26,.43-3.46-1.07-4.1Z"/>
        <path class="cls-9" d="M71.15,284.59c-23.26,6.41-42.76,24.2-52.15,46.33-2.65,6.19-4.46,12.72-5.39,19.39-.19,.78,.24,1.58,1,1.85,.8,.21,1.62-.25,1.85-1.05,3.14-23.06,17.46-43.94,37.36-55.85,5.68-3.41,11.8-6.02,18.18-7.78,.79-.24,1.24-1.08,.99-1.88-.23-.76-1.02-1.2-1.79-1.01h-.05Z"/>
        <path class="cls-9" d="M159.92,111.49c3.77,12.31-2.7,25.82-12.2,34.51s-21.64,13.78-33.08,19.69-22.89,13.27-29,24.59c-5,9.2-5.93,20-9.4,29.89-7,20-21.54,36.22-32.26,54.47-13.98,23.72-13.34,45.28-3.78,65.13,4.89,10.16,8.57,15.55,14.16,21.5,13.56,14.4,22.51,18.92,36.82,21.63s29.16,1.15,43.25-2.49c12.69-3.13,24.79-8.3,35.82-15.31,26-17,42.62-44.75,58.31-71.56l19.37-33.1c3.67-6.28,7.43-12.78,8.43-20,.79-5.65-.17-11.4-1.24-17-5-26.31-12.57-52.06-20.1-77.75-.8-2.72-1.63-5.51-3.34-7.77-2.3-3-5.9-4.75-9.38-6.31-19.05-8.54-38.75-15.56-58.91-21"/>
        <polygon class="cls-18" points="227.87 239.16 308.34 239.16 308.34 270.87 221.28 270.87 227.87 239.16"/>
        <path class="cls-17" d="M289.42,214.59l5.37,42.64-55-.33s11.77-16.33,10.07-42.87"/>
        <path class="cls-17" d="M550.69,325.09c62.72-8.25,89.72-27.82,100.78-40,1.27-1.38,1.18-3.53-.21-4.8-.97-.89-2.36-1.14-3.57-.65-5.16,2.14-10.52,3.78-16,4.89-9.41,1.84-19.34,1.73-28.4-1.41l-.35-.13c2.83-3.53,4.9-7.61,6.06-11.99-21.76-2.08-43,10.88-55.57,28.76-2.87,4.08-5.46,8.5-9.36,11.62"/>
        <path class="cls-15" d="M316,377.6l26,5.66c27.44,5.98,55.67,7.5,83.6,4.51h0c51.91-1.76,101.24-23.02,138.17-59.54l5.83-5.78-17.6-24.85-51.15,16.57c-42.32,13.7-88.65,6.12-124.4-20.35l-35.11-26c-8.26-6.11-16.86-11.76-25.76-16.9h0"/>
        <path class="cls-21" d="M578.08,320.34c-2.83,.63-5.77,1.22-8.8,1.79l-15.8-22.44c1.68-2.38,3.5-4.67,5.46-6.83l19.14,27.48Z"/>
        <path class="cls-8" d="M382.73,542.41l-3.45,.91c-61.6,16.23-122.35,22.78-186,19.42h-6c4.22-7.07,6.25-14.82,7.51-23,5.87-37.68,2.18-75.56-15.29-109.68l-5.63-11-35.09,90.27-4.14-.43c-3.69-.35-7.32-1.19-10.78-2.51-17.34-6.81-28.76-24.87-25.58-43.77l4.15-28.31c3.27-22.83,8.58-45.31,15.87-67.19,6.07-18.33,13.86-36.04,23.26-52.91,9.41-16.61,20.21-32.39,32.27-47.18,5.07-6.26,11.67-11.09,19.17-14.03l34.9-13.83,6.38,4.8c21.06,15.87,50.29,15.12,70.51-1.81l3.58-3,48.89,49.55c9.06,9.18,15.73,20.44,19.44,32.79,1.84,6.04,2.78,12.32,2.8,18.64,0,12.15-3.57,24.2-10.44,36.24-5,8.4-8.71,17.5-11,27l-.13,.58c-2.31,11.05-2.13,22.47,.51,33.44l24.29,105.01Z"/>
        <path class="cls-27" d="M380.61,421.26c-40.66-14.4-70,.85-70,.85l7.6,15,30.79,7.59,15.25-3.11,8.75-7.59,7.61-12.74Z"/>
        <path class="cls-18" d="M315.39,461l-5.06-39.81s18.67,5.81,36.12,5.51,33.71-6.51,33.88-6.34l-13.55,102.49c.14-.14-11.64,3.93-23.16,4-11,.11-21.74-3.76-21.74-3.76l-1.39-11"/>
        <path class="cls-17" d="M283.66,480.83c2.51-7.12,6.06-13.83,10.54-19.91,5.22-6.45,11.83-11.63,19.34-15.15l2.54,12.54c10.14,5.15,21.06,6.45,33.19,3.31,3.09-.91,6.32-1.28,9.54-1.1,2.62,.04,5.16,.89,7.29,2.42,4.13,3.21,6.55,8.16,6.53,13.39v.23c-.48,14.19-5.83,25-24.45,29.27-27.69,6.29-57.63,6.63-71.56,5.23"/>
        <path class="cls-8" d="M149.75,447.44l15.88,8.56c28,15.1,59.93,21.35,91.56,17.91l27.09-2.91c.99-.11,1.9,.57,2.08,1.55l7.91,42.29c.18,1.09-.56,2.12-1.65,2.3-.08,.01-.16,.02-.24,.02l-24.86,.46c-43.05,.79-86.1-1.96-128.7-8.22h0"/>
        <path class="cls-24" d="M259.58,518.32l-24.88-.6c-23.12-.55-46.51-2.16-69.5-4.76-.28-.03-.48-.28-.44-.55,.03-.28,.28-.48,.55-.45,23,2.6,46.32,4.2,69.42,4.76l24.85,.59,31-.54c.26-.02,.5,.17,.52,.44,0,.02,0,.03,0,.05,0,.28-.22,.51-.5,.52l-31.02,.54Z"/>
        <path class="cls-17" d="M646,1032.28c0,1.7,41.23,40.66,41.23,40.66l26-21.74-29.63-57.6"/>
        <path class="cls-21" d="M644.2,1030.84c0,1.69,19.46,20.18,19.46,20.18l32.34-33.38-9.52-18.85"/>
        <rect class="cls-11" x="153.89" y="720.48" width="923.86" height="34.31"/>
        <rect class="cls-16" x="153.89" y="720.48" width="923.86" height="18.33"/>
        <polyline class="cls-30" points="559.92 925.55 491.59 1030.59 419.31 1000.1 467.87 841.98"/>
        <path class="cls-30" d="M376.39,601.41c122.54,34.17,215.12,157,268.77,280.75l53.11,122.45-51.69,43.53-35.89-47c-94.38-123.72-232.09-244.82-370.93-264.86l-5.41-1h0c-22.41-6.71-41.24-22.04-52.35-42.62-.08-.15-.16-.29-.23-.44h0c-20.9-39.57-20.44-87.01,1.23-126.16l10.44-18.86,26.29,5c54.77,10.52,111.48-1.02,157.79-32.1h0l159,65.63c75,30.95,111.33,113.67,87.8,187.91-3.77,12.08-9.18,23.58-16.1,34.17"/>
        <path class="cls-31" d="M554.53,933.82l-26.53,40.82c-21.92-32.91-45.97-64.35-72-94.11l9.75-31.76c31.55,26.23,61.22,54.65,88.78,85.05Z"/>
        <path class="cls-29" d="M608.1,809.46c-.36,0-.68-.19-.86-.5-29.46-51.18-63-94.53-99.63-128.85-41.25-38.63-85.49-64.72-131.49-77.54-.53-.15-.84-.7-.7-1.23,.15-.53,.7-.84,1.24-.7,46.31,12.91,90.83,39.16,132.32,78,36.79,34.45,70.43,78,100,129.31,.28,.48,.11,1.09-.37,1.37-.15,.09-.33,.13-.5,.13h-.01Z"/>
        <path class="cls-29" d="M195.18,596.86c-8.58,.04-17.15-.86-25.53-2.7-.54-.13-.86-.67-.73-1.21,.13-.54,.67-.86,1.21-.73,0,0,0,0,.01,0,12.55,2.7,25.45,3.33,38.2,1.86,27.36-3.33,46.74-16.56,57.59-39.31,.24-.5,.84-.71,1.33-.48,.5,.24,.71,.84,.48,1.34-13.93,29.18-39.89,38.1-59.22,40.44-4.43,.53-8.88,.8-13.34,.79Z"/>
        <path class="cls-19" d="M744.84,1060.4c5.77,2.72,10.75,4.52,16.38,3.13h.12c.73-.19,1.44-.42,2.14-.69l38.21-12.41c3.93-1.18,8.18,.2,10.67,3.46h0c3.21,4.2,2.53,10.19-1.54,13.57l-67.74,56.54c-5.93,4.9-14.66,4.28-19.83-1.42l-37.31-41.16c-3.35-3.67-3.08-9.37,.59-12.71,.07-.06,.14-.12,.21-.19l22.45-19.3c3.46-3,8.63-2.92,12,.19l23.65,10.99Z"/>
        <path class="cls-24" d="M240.45,475.12c-19.22,0-35.52-2.73-51.51-8.32-.26-.09-.4-.38-.31-.64,.09-.26,.38-.4,.64-.31,27,9.42,54.84,10.67,96.26,4.34,.28-.04,.54,.14,.58,.42,.04,.28-.14,.54-.42,.58-17.08,2.6-31.87,3.93-45.24,3.93Z"/>
        <path class="cls-17" d="M321.51,150.3c2.54,42-20.26,77.6-50.92,79.45s-74.91-30.75-77.45-72.75c-1.7-28.19-5.41-70.39,15.72-84.54,10.37-6.94,31.91,5.09,52.53,5.09,30.71,0,57.61,30.72,60.12,72.75Z"/>
        <ellipse class="cls-17" cx="196.06" cy="155.86" rx="22.59" ry="23.53"/>
        <path class="cls-21" d="M293,243.36c-19.15-2.8-33.28-9.54-43.32-16.65v-.16c6.68,2.42,13.76,3.53,20.86,3.25,3.64-.22,7.24-.92,10.7-2.09,3.23-1.09,6.33-2.55,9.23-4.36l1.13,9,1.4,11.01Z"/>
        <path class="cls-21" d="M312.42,114.42c-21.7,9.94-46.07,14-67.79,4.68-3.14-1.34-6.19-2.88-9.13-4.62l-14.67-8.74s-10.8,19.12-25.49,25.43c.5-.31,.97-.64,1.43-1,1.38-1.06,2.65-2.25,3.8-3.55,3.73-4.25,6.18-9.45,8.37-14.66,1.28-2.93,2.37-5.93,3.27-9,1.92-7.2,2.26-14.73,1-22.08l-2.25-7.34c4.04,12.46,13.29,22.9,24.43,29.85,11.5,7.18,24.89,10.88,38.35,12.56,6.25,.79,12.66,1.14,18.79-.34,1.45-.35,2.87-.81,4.25-1.39,2.8-1.18,5.89-1.53,8.88-1,2.1,.37,4.24,.49,6.37,.36,.13,.28,.26,.56,.39,.84Z"/>
        <path class="cls-9" d="M338.56,72.52c-2-13.07-8.94-24.86-16.56-35.67-5.81-8.25-12.21-16.24-20.3-22.26C283.28,.89,258.69-.87,235.76,.3c-8.23,.27-16.41,1.28-24.46,3-17.11,4-33.1,13.24-44.31,26.76-11.21,13.52-17.38,31.33-16.05,48.84,.74,9.72,3.69,19.16,4.52,28.87s1.1,30.37-5.91,37.13l20.58-19.11,10.36,5.63c5.2,2.85,11.58,2.4,16.33-1.15,1.38-1.05,2.65-2.24,3.8-3.55,3.73-4.24,6.18-9.44,8.36-14.65,1.28-2.93,2.37-5.93,3.28-9,1.91-7.2,2.26-14.73,1-22.07l-2.63-8.58c3.82,13,13.32,23.9,24.82,31.08s24.9,10.88,38.35,12.57c6.25,.78,12.67,1.14,18.79-.34,1.45-.35,2.88-.82,4.26-1.39,2.8-1.18,5.89-1.52,8.88-1,7.31,1.32,14.85-.47,20.79-4.93,10.39-8.19,14.08-22.82,12.04-35.89Z"/>
        <path class="cls-24" d="M160.39,453.68c-.08,0-.15-.01-.22-.05l-8.4-4.09c-.27-.09-.41-.38-.33-.64,.09-.27,.38-.41,.64-.33,.04,.01,.08,.03,.12,.06l8.4,4.1c.25,.12,.35,.42,.23,.67-.08,.17-.26,.28-.45,.28h0Z"/>
        <path class="cls-9" d="M166.64,88.25c2.38,10,.75,20.37-2.36,30-2.63,8.15-6.06,16.85-12.18,23.05-2.91,3.02-6.63,5.14-10.71,6.1-4.87,1.11-10.06,.85-15,.51-20.25-1.45-39.65-8.71-55.88-20.91-1.55-1.16-3,1.44-1.52,2.59,16.11,12.03,35.24,19.36,55.27,21.17,5.07,.57,10.2,.57,15.27,0,4.6-.59,8.95-2.46,12.55-5.39,7-5.72,10.9-14.55,13.9-22.85,4.05-11.18,6.35-23.35,3.56-35.1-.45-1.88-3.34-1.08-2.9,.8v.03Z"/>
        <path class="cls-9" d="M58.64,149.61c7.69,3.83,15.73,6.93,24,9.26,15.62,4.59,32.6,7,48.69,3.48,9.87-2.11,18.94-6.97,26.18-14,2.76-2.71-1.48-6.95-4.24-4.24-5.89,5.76-13.2,9.86-21.18,11.89-1.94,.52-3.91,.93-5.9,1.24l-1.49,.23c.49-.07,0,0-.1,0l-.9,.1c-1,.11-2,.2-3,.27-4.1,.27-8.21,.23-12.31-.1-1-.07-2-.16-3-.27l-1.32-.15-.73-.09h-.37c-2-.27-3.96-.61-5.88-1-3.66-.67-7.29-1.52-10.88-2.56-5.88-1.64-11.66-3.62-17.31-5.94l-.87-.37c-.08,0-.6-.25-.1,0s-.13-.05-.23-.09l-1.49-.65c-.83-.37-1.66-.74-2.49-1.13s-1.4-.66-2.09-1c-1.44-.79-3.25-.32-4.11,1.08-.84,1.43-.36,3.27,1.07,4.11,0,0,0,0,0,0l.04-.07Z"/>
        <path class="cls-9" d="M63.42,262.87c-9.7,9.69-14.61,22.82-17.67,35.93-.89,3.84-1.64,7.71-2.33,11.59-.33,1.89,2.56,2.7,2.89,.8,2.92-16.43,7-34,19.23-46.2,.56-.61,.53-1.56-.07-2.12-.58-.54-1.47-.54-2.05,0h0Z"/>
        <path class="cls-9" d="M290.72,11.62l.42,.17,.21,.08c.21,.09-.42-.18,0,0,.23,.1,.46,.19,.68,.3,1.52,.66,3,1.38,4.48,2.13,5.09,2.61,9.98,5.59,14.64,8.91,6.45,4.58,12.39,9.83,17.72,15.67,6.31,6.89,11.56,14.68,15.58,23.12,4.64,9.94,7.42,20.65,8.19,31.6,.11,1.54,.18,3.08,.22,4.62,.06,1.93,3.06,1.94,3,0-.26-11.53-2.63-22.92-7-33.59-3.82-9.12-9.02-17.59-15.43-25.11-5.44-6.36-11.57-12.1-18.28-17.1-4.95-3.74-10.19-7.08-15.66-10-1.69-.9-3.39-1.75-5.12-2.54-.89-.46-1.82-.85-2.76-1.19h-.1c-1.81-.69-2.59,2.21-.8,2.9v.03Z"/>
        <path class="cls-9" d="M288.33,11c2,1,3.92,2.12,5.81,3.28,4.78,2.96,9.34,6.26,13.63,9.89,6.1,5.1,11.64,10.84,16.52,17.12,5.78,7.44,10.4,15.71,13.71,24.53,3.82,10.35,5.71,21.32,5.56,32.35,0,1.51-.06,3-.14,4.53-.11,1.92,2.89,1.92,3,0,1.35-21.45-4.81-42.71-17.42-60.11-4.91-6.81-10.57-13.05-16.87-18.59-4.66-4.13-9.63-7.9-14.87-11.28-2.33-1.56-4.75-2.97-7.26-4.23l-.11-.05c-1.73-.84-3.25,1.75-1.51,2.59l-.05-.03Z"/>
        <path class="cls-13" d="M185.66,159.52c.72-5.2,4.1-9.66,8.91-11.77,.53-.17,.84-.72,.71-1.26-.14-.54-.68-.86-1.22-.72-.01,0-.03,0-.04,.01-5.51,2.3-9.43,7.31-10.33,13.22-.13,.54,.18,1.09,.71,1.26,.53,.16,1.09-.14,1.25-.67,0-.02,0-.03,.01-.05v-.02Z"/>
        <path class="cls-13" d="M188.59,152.56c.81,.27,1.56,.73,2.17,1.33,.84,.78,1.58,1.66,2.2,2.62,1.1,1.67,2.17,3.79,2.07,5.7-.07,1.32,2,1.32,2,0,.13-2.41-1.12-4.91-2.43-6.86s-3.14-4.11-5.51-4.76c-.55-.15-1.12,.18-1.27,.73-.15,.55,.18,1.12,.73,1.27l.04-.03Z"/>
        <path class="cls-24" d="M174.51,417.05c-.06,.01-.13,.01-.19,0-.25-.09-.38-.38-.29-.63,0,0,0-.01,0-.02l13.76-33.59c.1-.26,.39-.38,.65-.28,0,0,0,0,0,0,.26,.11,.38,.4,.28,.66l-13.73,33.55c-.08,.2-.28,.32-.49,.31Z"/>
        <ellipse class="cls-28" cx="717.51" cy="1054.67" rx="3.11" ry="4.61" transform="translate(-542 1256.59) rotate(-64.88)"/>
        <ellipse class="cls-28" cx="730.5" cy="1062.38" rx="3.11" ry="4.61" transform="translate(-541.51 1272.79) rotate(-64.88)"/>
        <ellipse class="cls-28" cx="744.61" cy="1069.44" rx="3.11" ry="4.61" transform="translate(-539.79 1289.63) rotate(-64.88)"/>
        <ellipse class="cls-28" cx="449.12" cy="1076.79" rx="3.11" ry="4.61" transform="translate(-21.52 9.23) rotate(-1.15)"/>
        <ellipse class="cls-28" cx="447.95" cy="1092.11" rx="3.11" ry="4.61" transform="translate(-21.75 9.18) rotate(-1.15)"/>
        <ellipse class="cls-28" cx="447.86" cy="1107.63" rx="3.11" ry="4.61" transform="translate(-22.14 9.21) rotate(-1.15)"/>
        <path class="cls-33" d="M717.83,1054.84c3-2.46,7.32-3.3,11.1-3,.8,.08,2.12,.33,1.69,1.37-.34,.85-1,1.58-1.41,2.43-.83,1.85-1.14,3.9-.88,5.92,.03,.84,.74,1.49,1.58,1.46,.5-.02,.95-.28,1.22-.7,1.65-2.31,4.05-3.98,6.79-4.72,2.4-.67,6-1,8.21,.56l-.69-.89c-.09-.47,0-.4-.31-.11-.21,.25-.39,.52-.54,.8-.3,.49-.56,1-.79,1.53-1.43,3.21-1.52,6.86-.27,10.14,.7,1.78,3.6,1,2.9-.8-1.22-3-.98-6.39,.65-9.19,.72-1.21,2.18-2.64,.71-4-1-.9-2.8-1.2-4.1-1.4-5.87-.85-11.73,1.66-15.15,6.51l2.79,.76c-.18-1.27-.09-2.57,.27-3.81,.52-1.17,1.12-2.29,1.79-3.38,1.13-2.49-.7-4.85-3.18-5.36-2.56-.41-5.18-.29-7.69,.35-2.51,.55-4.84,1.68-6.82,3.32-1.48,1.23,.65,3.34,2.13,2.12v.09Z"/>
        <path class="cls-33" d="M450.09,1077.62c3.44,1.89,5.78,5.48,6.94,9.17,.22,.71,.6,2.07-.44,2.24-.53-.02-1.06-.11-1.56-.28-.47-.08-.94-.13-1.41-.16-2.1-.07-4.17,.43-6,1.47-.71,.43-.94,1.36-.51,2.07,.2,.32,.5,.56,.87,.67,2.78,.66,5.25,2.24,7,4.5,.86,1.11,1.54,2.35,2,3.68,.55,1.3,.76,2.71,.61,4.11l.69-.9c.39-.24,.42-.08-.16-.23-.3-.07-.6-.14-.91-.19-.56-.1-1.12-.16-1.69-.19-3.6-.16-7.12,1.15-9.74,3.62-1.42,1.32,.71,3.44,2.12,2.12,2.25-2.08,5.3-3.06,8.34-2.68,1.35,.18,3.15,1.14,4.09-.4,.7-1.12,.25-3.14,0-4.34-1.24-5.87-5.71-10.53-11.53-12l.35,2.74c1.13-.64,2.39-1,3.68-1.06,1.3,0,2.5,.44,3.78,.44,2.8,0,4-2.75,3.55-5.18-.59-2.47-1.66-4.79-3.16-6.84-1.39-2.06-3.24-3.78-5.4-5-1.69-.92-3.21,1.66-1.51,2.59v.03Z"/>
        <path class="cls-14" d="M528.24,601.08c11.77,4.26,22.45,11.06,31.29,19.92,2.74,2.73,7-1.51,4.24-4.24-9.6-9.55-21.18-16.86-33.93-21.41-1.6-.44-3.25,.49-3.69,2.09-.41,1.59,.51,3.22,2.09,3.69v-.05Z"/>
        <ellipse class="cls-14" cx="572.48" cy="630.71" rx="4.9" ry="8.1" transform="translate(-256.14 433.45) rotate(-34.38)"/>
        <path class="cls-14" d="M264.36,267.4c8.13,1.92,16.65,1.37,24.48-1.56,1.57-.48,2.49-2.1,2.09-3.69-.44-1.6-2.09-2.54-3.69-2.1,0,0,0,0,0,0-6.77,2.63-14.16,3.17-21.24,1.56-1.59-.4-3.22,.53-3.69,2.1-.44,1.6,.5,3.25,2.1,3.69,0,0,0,0,0,0h-.05Z"/>
        <path class="cls-14" d="M303.25,262.48l5-1.91c.74-.24,1.37-.73,1.79-1.38,.4-.7,.51-1.53,.3-2.31-.21-.76-.7-1.4-1.38-1.8-.7-.41-1.53-.52-2.31-.3l-5,1.91c-.37,.09-.72,.28-1,.54-.33,.21-.59,.5-.77,.84-.41,.7-.52,1.53-.3,2.31,.44,1.6,2.09,2.54,3.69,2.1,0,0,0,0,0,0h-.02Z"/>
        <path class="cls-14" d="M288.52,25.2c1.58,.85,3.11,1.79,4.59,2.8,.78,.53,1.54,1.08,2.29,1.65-.25-.19-.09-.07,.06,.05l.55,.44,1.09,.9c1.36,1.17,2.66,2.4,3.89,3.7,.62,.65,1.22,1.31,1.8,2,.3,.36,.61,.72,.9,1.09,.12,.14,.24,.29,.35,.44,.58,.72-.33-.45,.23,.29,.87,1.39,2.67,1.86,4.1,1.07,1.23-.79,2.1-2.77,1.08-4.1-4.79-6.39-10.9-11.69-17.9-15.53-1.49-.73-3.28-.12-4.02,1.37-.66,1.35-.23,2.97,1.02,3.81l-.03,.02Z"/>
        <path class="cls-14" d="M311.39,50.61l2,3.21c.41,.66,1.04,1.16,1.79,1.38,.39,.1,.81,.1,1.2,0,.4-.02,.78-.14,1.12-.35,.67-.4,1.17-1.05,1.38-1.8l.1-.79c0-.53-.14-1.06-.41-1.52l-2-3.2c-.41-.67-1.05-1.16-1.8-1.38-.38-.13-.8-.15-1.19-.06-.4,.02-.79,.14-1.12,.36-.67,.4-1.17,1.04-1.38,1.79l-.11,.8c0,.53,.14,1.05,.41,1.51v.05Z"/>
        <ellipse class="cls-13" cx="345.33" cy="427.62" rx="37.13" ry="6.17"/>
        <polyline class="cls-13" points="308.2 417.09 308.2 427.62 338.05 427.62 382.46 427.62 382.46 417.09 341.3 417.09"/>
        <ellipse class="cls-20" cx="345.33" cy="417.09" rx="37.13" ry="6.17"/>
        <path class="cls-4" d="M345.51,421.83c-15.9,0-32.8-1.66-32.8-4.74s16.9-4.74,32.8-4.74,32.8,1.66,32.8,4.74-16.9,4.74-32.8,4.74Zm0-8.73c-19.86,0-32.05,2.32-32.05,4s12.19,4,32.05,4,32.05-2.32,32.05-4-12.19-4-32.05-4h0Z"/>
        <path class="cls-5" d="M379.11,430.18l-.66,5c-6.17,2-18.67,3.35-33.09,3.35s-27.18-1.39-33.28-3.41l-.63-5c5.83,2.14,18.82,3.63,33.91,3.63s27.85-1.45,33.75-3.57Z"/>
        <path class="cls-14" d="M352.86,383.75c1.01-3.22,2.3-6.36,3.83-9.37,1.6-3.14,3.44-6.15,5.5-9,.83-1.43,.35-3.27-1.08-4.1-1.44-.79-3.24-.32-4.11,1.07-4.32,6.06-7.66,12.75-9.92,19.84-.44,1.6,.49,3.25,2.09,3.69,1.59,.4,3.22-.53,3.69-2.1v-.03Z"/>
        <ellipse class="cls-14" cx="367.37" cy="353.74" rx="5.65" ry="4.3" transform="translate(-137.1 428.62) rotate(-52.36)"/>
        <path class="cls-7" d="M370,489.91c-.57,1.36-1.26,2.67-2.07,3.9-10.76,3.63-22.04,5.49-33.4,5.52-.83,0-1.5-.67-1.5-1.5s.67-1.5,1.5-1.5c12.11-.02,24.12-2.19,35.47-6.42Z"/>
        <path class="cls-7" d="M372.28,481.05c-.14,1.16-.33,2.29-.56,3.38-7,2.42-14.32,3.81-21.72,4.12-1.93,.08-1.92-2.92,0-3,7.62-.33,15.13-1.85,22.28-4.5Z"/>
        <path class="cls-7" d="M372.63,476.31h0c-6.04,2.14-12.42,3.16-18.83,3-1.93-.05-1.94-3.05,0-3,6.34,.17,12.65-.88,18.6-3.08,.18,1.02,.26,2.05,.23,3.08Z"/>
        <path class="cls-7" d="M370.71,468.47c-5.05,1.84-10.5,2.34-15.8,1.44-1.9-.32-1.09-3.21,.8-2.9,4.46,.73,9.02,.34,13.29-1.13,.65,.81,1.22,1.68,1.71,2.59Z"/>
        <path class="cls-13" d="M292.71,183.25c2.19-.28,5.16-.78,6.69-2.55,1.85-2.13-.23-4.36-1.4-6.21-2.84-4.51-4.76-9.54-5.65-14.8-.23-1.29-2.2-.75-2,.54,.75,4.28,2.14,8.42,4.14,12.28,1,1.89,2.33,3.57,3.32,5.43,1.23,2.32-3.65,3.08-5.12,3.26-1.29,.16-1.3,2.21,0,2.05h.02Z"/>
        <ellipse class="cls-10" cx="273.96" cy="154.41" rx="6.12" ry="8.7" transform="translate(-11.57 22.62) rotate(-4.63)"/>
        <ellipse class="cls-10" cx="304.45" cy="151.95" rx="6.12" ry="8.7" transform="translate(-11.27 25.07) rotate(-4.63)"/>
        <path class="cls-10" d="M324.31,139.23c-7.71-6.82-18.52-8.89-28.2-5.41l-1-2.83c10.71-3.84,22.66-1.54,31.19,6l-1.99,2.24Z"/>
        <path class="cls-10" d="M249.28,144.56l-2.28-1.94c7.36-8.68,18.85-12.66,30-10.39l-.6,2.94c-10.08-2.05-20.47,1.54-27.12,9.39Z"/>
        <path class="cls-10" d="M306.5,146.3c1.89,.62,3.95,.43,5.7-.51,1.17-.58,2.22-1.38,3.09-2.35,.1,.57-.02,1.15-.34,1.63-1.57,3-4.11,5.38-7.22,6.73"/>
        <path class="cls-10" d="M303.2,145.56c1.99,.05,3.91-.72,5.31-2.13,.96-.89,1.73-1.96,2.29-3.14,.26,.52,.31,1.11,.14,1.66-.64,3.33-2.41,6.34-5,8.52"/>
        <path class="cls-10" d="M269.3,148.79c-1.83,.79-3.89,.79-5.72,0-1.22-.45-2.34-1.13-3.3-2-.05,.57,.13,1.14,.49,1.59,1.84,2.83,4.59,4.95,7.8,6"/>
        <path class="cls-10" d="M272.51,147.75c-1.97,.23-3.95-.37-5.48-1.64-1.03-.8-1.9-1.79-2.56-2.92-.22,.54-.22,1.13,0,1.67,.95,3.24,2.97,6.06,5.73,8"/>
        <path class="cls-14" d="M308.32,184.83c.89,8.33-5.57,17.55-14.43,18.5s-16.77-6.74-17.66-15.08c0-.2,0-.41-.05-.62,10.63,3.99,22.51,2.72,32.06-3.42,.03,.2,.06,.41,.08,.62Z"/>
        <polygon class="cls-20" points="322.04 417.09 322.04 407.01 333.05 409.01 333.05 418.09 322.04 417.09"/>
        <path class="cls-26" d="M448.1,380.57c1.6-.23,3.2-.48,4.79-.75,.8-.22,1.27-1.04,1.05-1.84-.1-.38-.35-.71-.69-.9-.35-.18-.76-.24-1.15-.15-1.6,.27-3.19,.52-4.8,.75-.78,.24-1.22,1.06-1,1.84,.1,.38,.35,.71,.69,.9,.36,.18,.76,.23,1.15,.15h-.04Z"/>
        <path class="cls-26" d="M423.44,383.1c5.19-.35,10.37-.81,15.54-1.37,.82-.02,1.48-.68,1.5-1.5,0-.83-.67-1.49-1.5-1.5-5.17,.57-10.35,1.03-15.54,1.37-.82,.02-1.48,.68-1.5,1.5,0,.83,.67,1.5,1.5,1.5Z"/>
        <path class="cls-26" d="M374,382.45c5.78,.95,11.63,1.45,17.49,1.47,7.88,.2,15.77,0,23.64-.34,1.93-.09,1.94-3.09,0-3-7.73,.36-15.48,.53-23.22,.35-5.73,0-11.45-.46-17.11-1.37-1.89-.35-2.7,2.54-.8,2.89h0Z"/>
        <path class="cls-29" d="M254.39,601.63c-3.79,0-6.87-3.08-6.87-6.87,0-3.79,3.08-6.87,6.87-6.87s6.87,3.08,6.87,6.87c0,3.79-3.08,6.86-6.87,6.87Zm0-11.74c-2.69,0-4.87,2.18-4.87,4.87,0,2.69,2.18,4.87,4.87,4.87s4.87-2.18,4.87-4.87-2.18-4.87-4.87-4.87h0Z"/>
      </g>
    </g>
  </g>
</svg>